<ttFont>
          <CharString index="0">
            rmoveto
            1 -102 callsubr
            rlineto
            491.99000549316406 -104 callsubr
            hlineto
            -171 24 91 291.97999572753906 rlineto
            588 hlineto
            95.00999450683594 -291.97999572753906 -163 -49 callgsubr
            549 -97 callgsubr
            -127.02000427246094 24 -496.99000549316406 1401 rlineto
            -238 hlineto
            -493 -1401 -126.99000549316406 -24 rlineto
            452.9700012207031 443 rmoveto
            205 654.9900054931641 44.02000427246094 170 43.99000549316406 -168 214 -657 rlineto
            -507 hlineto
            endchar
          </CharString>
          <CharString index="1">
            rmoveto
            -456.00999450683594 177.99000549316406 -202.97000122070312 414 314 238 193.97999572753906 441 vhcurveto
            766 vlineto
            148 -96 callsubr
            -479 -29 callsubr
            165 -90 callgsubr
            rlineto
            -775.9900054931641 vlineto
            -320 -120.00999450683594 -186 -239 -222.99000549316406 -152 145 callsubr
            387.00999450683594 vhcurveto
            764.9900054931641 vlineto
            170 -96 callsubr
            -558 -29 callsubr
            144 -90 callgsubr
            rlineto
            -741.9900054931641 vlineto
            endchar
          </CharString>
          <CharString index="2">
            -770.0099945068359 vlineto
            -39 -49 -95.00999450683594 -60 -116.97999572753906 hhcurveto
            -162.02000427246094 -39 82 219.02000427246094 hvcurveto
            705.9900054931641 vlineto
            -42 27.020004272460938 449 callgsubr
            -296.02000427246094 -30 rlineto
            -97.00999450683594 vlineto
            111 91 callsubr
            rlineto
            -580.0200042724609 vlineto
            -317.99000549316406 79 callsubr
            -123.97999572753906 3 callsubr
            145 142 87.97999572753906 71 -11 callgsubr
            vhcurveto
            return
          </CharString>
          <CharString index="3">
            108.99000549316406 return
          </CharString>
          <CharString index="4">
            -87 callsubr
            -614.0099945068359 rmoveto
            -303 -94 -150 -182.99000549316406 -200 -77.99000549316406 209 281 303 94.99000549316406 150 183 202 75 -210 -280 vhcurveto
            endchar
          </CharString>
          <CharString index="5">
            -108.99000549316406 return
          </CharString>
          <CharString index="6">
            -186 27.020004272460938 rlineto
            111 callsubr
            183 25.009994506835938 254 callgsubr
            183 -67 callsubr
            return
          </CharString>
          <CharString index="7">
            -96 callgsubr
            507 -97 callgsubr
            -191.02000427246094 24 rlineto
            1141.990005493164 vlineto
            156.02000427246094 -272 688.9900054931641 -1002.9900054931641 rlineto
            164 1384.979995727539 hlineto
            -11 callsubr
            -96 callsubr
            -495.99000549316406 -29 callsubr
            179 -64 callsubr
            -1044.990005493164 vlineto
            -106 198 -673 983 rlineto
            -395 -111 hlineto
            104 callsubr
            -90 callgsubr
            rlineto
            -1252.990005493164 vlineto
            241 callsubr
            -23 rlineto
            return
          </CharString>
          <CharString index="8">
            -102 callsubr
            288.00999450683594 296 callsubr
            -7 callgsubr
            -14 -35 callsubr
            100 hvcurveto
            463.02000427246094 -11 315 337.97999572753906 498 vvcurveto
            445.00999450683594 -230 282.99000549316406 -525.9900054931641 vhcurveto
            -127.02000427246094 -109 8 callsubr
            -124 hhcurveto
            -267 -111 78 callsubr
            return
          </CharString>
          <CharString index="9">
            rmoveto
            -262 vlineto
            -31.009994506835938 69 171 -54.97999572753906 153 hhcurveto
            276.99000549316406 163 9 callgsubr
            201.02000427246094 256 callgsubr
            -170 81 -180 78 hvcurveto
            hintmask 11010100
            -135 58 276 callgsubr
            40 126 callgsubr
            vvcurveto
            83 68 60 130 -2 vhcurveto
            86 74 -31 -33 16 hvcurveto
            43 -140 rlineto
            128 253 hlineto
            -58 callgsubr
            -53 -112 49 -174 hhcurveto
            -239 -179 -120.00999450683594 -182.99000549316406 -183 99 127 callgsubr
            206 -80 hvcurveto
            hintmask 11101000
            202 -81 101 -58.02000427246094 202 callsubr
            vvcurveto
            89 callsubr
            -48 -69 -161 -100.99000549316406 -99 42 41 -24 vhcurveto
            -40 152 rlineto
            -141 hlineto
            endchar
          </CharString>
          <CharString index="10">
            rmoveto
            -380.99000549316406 -196 -281 -336 1 hvcurveto
            -326 381 callgsubr
            -247.99000549316406 346.00999450683594 hhcurveto
            157 154.99000549316406 61 callgsubr
            71 68.02000427246094 hvcurveto
            -43 92 rlineto
            -42 -59 -101 -46 -126 hhcurveto
            -180 -148.99000549316406 147 346.99000549316406 -36 callsubr
            hvcurveto
            284 1 116 141 172.99000549316406 hhcurveto
            73.02000427246094 63 -19 -46 19 hvcurveto
            46 -187 rlineto
            139 hlineto
            10 308 rlineto
            20.009994506835938 -53 -116.99000549316406 42 -138.02000427246094 hhcurveto
            endchar
          </CharString>
          <CharString index="11">
            -91 callgsubr
            111 return
          </CharString>
          <CharString index="12">
            -223.99000549316406 23 rlineto
            465 vlineto
            420 788.9900054931641 164 callgsubr
            -473 -29 callsubr
            162 -69 callgsubr
            -268 -546 -64.97999572753906 98 callgsubr
            -57.02000427246094 145 -281.99000549316406 542.9900054931641 155 -96 callsubr
            -547.9799957275391 -29 callsubr
            127.97999572753906 -27 452.02000427246094 -792 rlineto
            -459 vlineto
            return
          </CharString>
          <CharString index="13">
            82 callgsubr
            -149 338 357.99000549316406 418.02000427246094 205 221 callgsubr
            287.99000549316406 174.02000427246094 69.97999572753906 -5 callsubr
            161 callgsubr
          </CharString>
          <CharString index="14">
            -52 vlineto
            -472 vmoveto
            -51 -66.00999450683594 -101 -40 -62 hhcurveto
            -110 -82 61 callsubr
            147 132 113.00999450683594 -3 callsubr
            308 1 hvcurveto
            -359 vlineto
            endchar
          </CharString>
          <CharString index="15">
            -101 callsubr
            -183 -24 rlineto
            return
          </CharString>
          <CharString index="16">
            rmoveto
            432 -1393.990005493164 rlineto
            291 callsubr
            hlineto
            295.02000427246094 995.9799957275391 302 -995.9799957275391 rlineto
            216 hlineto
            hintmask 11010000
            413 1393.990005493164 133 27 rlineto
            111 -498.00999450683594 -29 callsubr
            202.02000427246094 -27 -261 -946.0099945068359 -53 -294 -61 294 -274 947 192 -96 callsubr
            -577.9900054931641 -29 callsubr
            140.99000549316406 -90 callgsubr
            56.02000427246094 -175.99000549316406 -229 -771.0099945068359 -60 callsubr
            -271 -52.02000427246094 271 -279 946.0099945068359 183 27 rlineto
            111 -558.9799957275391 -29 callsubr
            hintmask 11100000
            133.97999572753906 -27 rlineto
            endchar
          </CharString>
          <CharString index="17">
            60 callsubr
            17 rlineto
            999 vlineto
            -51 213 callsubr
            -318.00999450683594 -41 rlineto
            -117.99000549316406 vlineto
            145 -41 389 callsubr
            return
          </CharString>
          <CharString index="18">
            -76 callsubr
            100 callsubr
            27 callgsubr
            return
          </CharString>
          <CharString index="19">
            rmoveto
            -598 -734.9900054931641 -137.02000427246094 -210 rlineto
            997.9900054931641 vlineto
            187 -91 callgsubr
            110 -578 -29 callsubr
            161 69 callsubr
            -168 0 callsubr
            577.9900054931641 -97 callgsubr
            -180 24.990005493164062 rlineto
            70 vlineto
            610 740 125.00999450683594 199 rlineto
            117 callgsubr
            575 -97 callgsubr
            -170 24 rlineto
            279 callgsubr
            vlineto
            161 151 callgsubr
            170 -64 callsubr
            -53 vlineto
            endchar
          </CharString>
          <CharString index="20">
            -94 callgsubr
            265 return
          </CharString>
          <CharString index="21">
            427.00999450683594 1060.990005493164 111.99000549316406 -96 callsubr
            -444.99000549316406 285 callgsubr
            -254 -705.9900054931641 -60 callsubr
            -177 -55 175 -310.99000549316406 706.9900054931641 191 -96 callsubr
            -562.9900054931641 -29 callsubr
            117 -69 callgsubr
            500 -1064 rlineto
            -124 124 callgsubr
            -39 -28 -127 hhcurveto
            -5 -139 1 1 -2 hvcurveto
            return
          </CharString>
          <CharString index="22">
            70 88.99000549316406 70 -46 68.02000427246094 return
          </CharString>
          <CharString index="23">
            rmoveto
            362 222 284.97999572753906 347.00999450683594 395 -213 164 -233 -163 -117 -83 -73.99000549316406 92 callgsubr
            hvcurveto
            -3 callsubr
            vlineto
            -45 39 rlineto
            227 callgsubr
            hlineto
            -295 -40 72 callgsubr
            143 -40 rlineto
            -1328.979995727539 vlineto
            -149 -23 499 callgsubr
            581 108.02000427246094 vlineto
            493 callsubr
            22 rlineto
            198 vlineto
            -6 169.97999572753906 rlineto
            346 callsubr
            46.97999572753906 277 callsubr
            -12 63 hhcurveto
            -184 940.9900054931641 rmoveto
            43.99000549316406 40.97999572753906 85.02000427246094 53 103 hhcurveto
            165 133 -130 -309.97999572753906 -4 hvcurveto
            -347.02000427246094 191 callgsubr
            -145 138 callsubr
            -182.99000549316406 hhcurveto
            -94 362 callsubr
            163 callgsubr
            31 229 callgsubr
            hvcurveto
            764.0099945068359 vlineto
            endchar
          </CharString>
          <CharString index="24">
            vlineto
            -24 callsubr
            36 59 10.020004272460938 87 hhcurveto
            373.99000549316406 180 -226.02000427246094 -426.99000549316406 -437 -209 -219 -291 -6 hvcurveto
            -86 -1 -75 0 -75 -26 callgsubr
            rrcurveto
            return
          </CharString>
          <CharString index="25">
            rmoveto
            59 -98 rlineto
            1084 hlineto
            48 439.99000549316406 -130 -68 callsubr
            146 callsubr
            -309.97999572753906 -673 -39.02000427246094 128 138.02000427246094 780 1176.990005493164 -51 95 callgsubr
            -993.0099945068359 hlineto
            -44 -384 125.00999450683594 -17 111.99000549316406 264.99000549316406 573.0099945068359 22 -112 -135.99000549316406 -793 -1180 rlineto
            return
          </CharString>
          <CharString index="26">
            rmoveto
            126 callsubr
            1142 vlineto
            75 360 -132.02000427246094 9 callsubr
            -125.99000549316406 -252 -556 -23 rlineto
            597.0099945068359 vlineto
            324 -5 30 -171 rlineto
            127 468.00999450683594 -127 hlineto
            -30 -165 -324 -6 rlineto
            464 callsubr
            vlineto
            479.99000549316406 -12 329 callsubr
            -194.99000549316406 rlineto
            127 hlineto
            -31 320 rlineto
            -1427 -109 hlineto
            264 -25 rlineto
            hintmask 10111111
            -553.9799957275391 -1256 -148 -90 callgsubr
            451 callsubr
            502.99000549316406 -42 callsubr
            vlineto
            -152 24 122 304 rlineto
            517.0200042724609 hlineto
            hintmask 01111011
            -304 vlineto
            -170 -23 rlineto
            -294.00999450683594 457.00999450683594 rmoveto
            232 576 107 260 rlineto
            125.00999450683594 -836 -464.02000427246094 hlineto
            endchar
          </CharString>
          <CharString index="27">
            97 callsubr
            28 rlineto
            107 492 callgsubr
            -107 vlineto
            146 -27 -256 -357.99000549316406 rlineto
            -208.02000427246094 355.99000549316406 hlineto
            163 29 -1 107 rlineto
            -524.9900054931641 -107 hlineto
            4 callsubr
            -28 rlineto
            -356.99000549316406 -209 vlineto
            -256 357.99000549316406 147 27 rlineto
            107 -479.00999450683594 -107 vlineto
            149.02000427246094 -28 405 callsubr
            -381.99000549316406 -190 -99 -134 -357.00999450683594 122 callgsubr
            -30.990005493164062 rlinecurve
            291 callgsubr
            -24 rlineto
            -7 callsubr
            86 callsubr
            vlineto
            174 -20 callsubr
            537 171 hhcurveto
            144 -406 hlineto
            -150 152 callsubr
            543.0099945068359 -97 callgsubr
            407 callgsubr
            24 rlineto
            404.99000549316406 vlineto
            return
          </CharString>
          <CharString index="28">
            -96 callgsubr
            1098 vlineto
            220 callsubr
            462.99000549316406 -134 23 -122 385 callgsubr
            -505 2 callgsubr
            rlineto
            111 callsubr
            193 -96 callsubr
            -595 415 callsubr
            336 callgsubr
            return
          </CharString>
          <CharString index="29">
            403 callsubr
            -578 rlineto
            -170 520 callgsubr
            318 callsubr
            -558 -111 498 callsubr
            -90 callgsubr
            rlineto
            468 callgsubr
            -170 vlineto
            -388 367 callgsubr
            309 callgsubr
            -96 callsubr
            -502.99000549316406 -29 callsubr
            90 callsubr
            -69 callgsubr
            429.02000427246094 -593 -203.02000427246094 138 callgsubr
            524 callsubr
            -535 -107 -35 rlinecurve
            -81 -49 callgsubr
            267 vlineto
            150 239 698 169 hhcurveto
            519 callgsubr
            -564.0200042724609 hlineto
            -169 0 callsubr
            517 callsubr
            -42 callsubr
            vlineto
            -172 27.020004272460938 rlineto
            565 114 vlineto
            return
          </CharString>
          <CharString index="30">
            -265 -23 132.99000549316406 -132.99000549316406 123 callsubr
            449.989990234375 113 303.99000549316406 166 return
          </CharString>
          <CharString index="31">
            -62 callgsubr
            -85 callsubr
            435 callsubr
            -99 return
          </CharString>
          <CharString index="32">
            -96 callgsubr
            551 108.99000549316406 vlineto
            -90 callsubr
            334 callsubr
            return
          </CharString>
          <CharString index="33">
            -366 52 callgsubr
            306 309 callgsubr
            169 callsubr
            323 callgsubr
            124 callsubr
            240.00999450683594 290 callsubr
            vstem
            977 127 rmoveto
            -43 92 rlineto
            -42 -59 -101 -46 -126 hhcurveto
            -180 -148.99000549316406 147 346.99000549316406 -36 callsubr
            hvcurveto
            284 1 116 141 172.99000549316406 hhcurveto
            73.02000427246094 63 -19 -46 19 hvcurveto
            46 -187 rlineto
            139 hlineto
            10 308 rlineto
            20.009994506835938 -53 -116.99000549316406 42 -138.02000427246094 hhcurveto
            -380.99000549316406 -196 -281 -336 1 hvcurveto
            2 -298 -19 callgsubr
            -232 289.02000427246094 -38.99000549316406 rrcurveto
            123 callgsubr
            2 callsubr
            29 -70 -61 vvcurveto
            -126 106 callsubr
            193 callgsubr
            308 callsubr
            vhcurveto
            179 callgsubr
            453 callgsubr
            289 callsubr
            122 callsubr
            10 -28.020004272460938 hvcurveto
            -64 callgsubr
            134 callsubr
            110 92 callgsubr
            -75 callgsubr
            -47 54 145 11 -15 callgsubr
            71.97999572753906 259 callsubr
            329 callsubr
            rrcurveto
            endchar
          </CharString>
          <CharString index="34">
            -74 0 9 callgsubr
            584.5 126.52999877929688 555.5 120.47999572753906 return
          </CharString>
          <CharString index="35">
            -594 -14 callgsubr
            -515.9900054931641 -22 -20 callsubr
            128 585.0099945068359 796 -42 92 rlineto
            -863 -327 137 139 callgsubr
            return
          </CharString>
          <CharString index="36">
            rmoveto
            -8 19 57 -6.9900054931640625 41 hhcurveto
            236.02000427246094 -48 callsubr
            161 315 125.00999450683594 hvcurveto
            return
          </CharString>
          <CharString index="37">
            -104 callsubr
            315.989990234375 127.00999450683594 825.0000152587891 156.99000549316406 return
          </CharString>
          <CharString index="38">
            -96 callgsubr
            572 -97 callgsubr
            220 callgsubr
            24 rlineto
            581 699.9900054931641 -582 vlineto
            -163 152 callsubr
            558 396 callsubr
            23 rlineto
            1253.990005493164 vlineto
            90 callsubr
            -79 callgsubr
            -559 285 callgsubr
            rlineto
            -540 -699.9900054931641 540 413 callgsubr
            -79 callgsubr
            -566 -29 callsubr
            159 -67 callsubr
            -165 -24 rlineto
            endchar
          </CharString>
          <CharString index="39">
            25.990005493164062 return
          </CharString>
          <CharString index="40">
            -66 callsubr
            vlineto
            return
          </CharString>
          <CharString index="41">
            -90 callgsubr
            rlineto
            -1251.990005493164 return
          </CharString>
          <CharString index="42">
            167 34 188 118 97 callgsubr
            vvcurveto
            236 -205 109 -334.99000549316406 -154 -174 -60 callsubr
            -5 -86 vhcurveto
            21 469 callgsubr
            rlineto
            139.02000427246094 hlineto
            43.99000549316406 176 rlineto
            49 25.009994506835938 192 callgsubr
            35.99000549316406 125.00999450683594 hhcurveto
            155 382 callgsubr
            275 callgsubr
            -184 -56 callgsubr
            hvcurveto
            -221 1 220 callgsubr
            -93.99000549316406 -153 hhcurveto
            81 callgsubr
            -124 145 hlineto
            return
          </CharString>
          <CharString index="43">
            -69 callgsubr
            rlineto
            return
          </CharString>
          <CharString index="44">
            520 0 163 1219.990005493164 156.99000549316406 hstem
            276.99000549316406 214.99000549316406 927.9999847412109 219 vstem
            1087 209 callgsubr
            rmoveto
            -145.97999572753906 670 vlineto
            56 403.99000549316406 rlineto
            -135 hlineto
            -72 -231 -354 193 callgsubr
            186 228 callsubr
            195 334.99000549316406 6 276.00999450683594 rlinecurve
            417 7 -264 222 -409.00999450683594 hhcurveto
            -351.99000549316406 -335.00999450683594 -181 -469 87 callsubr
            hvcurveto
            -5 -308.02000427246094 244 -327.99000549316406 174 -98 -368 -58 callgsubr
            rcurveline
            92 callgsubr
            234 rlineto
            -133 hlineto
            243 callgsubr
            -403.99000549316406 rlineto
            687 209 callgsubr
            hlineto
            -158 105 callgsubr
            -202 292 313 vvcurveto
            375.00999450683594 180 166.99000549316406 299.00999450683594 275.99000549316406 173 -174 -338 -312.00999450683594 138 callsubr
            -291 -196 -122 vhcurveto
            endchar
          </CharString>
          <CharString index="45">
            85 callgsubr
            165 171 callgsubr
            -68 callsubr
            280 -11 -8 callsubr
            -5.0000152587890625 280 hintmask 00000000
            hintmask 11110100
            -68 callsubr
            1822.990005493164 rmoveto
            -75 50 -60.99000549316406 75.02000427246094 vhcurveto
            0.9900054931640625 -66 callgsubr
            347 callgsubr
            -49 -75 -85.00999450683594 hvcurveto
            -414 -1714 52 callsubr
            hintmask 11101000
            605 -42 callsubr
            hlineto
            -101 callsubr
            hintmask 11110100
            506 callgsubr
          </CharString>
          <CharString index="46">
            -84.00999450683594 return
          </CharString>
          <CharString index="47">
            -60.99000549316406 return
          </CharString>
          <CharString index="48">
            176 220 callsubr
            54 10 callgsubr
            104 vvcurveto
            133 -129 94.99000549316406 445 callgsubr
            -52.99000549316406 -64 -64 vhcurveto
            60 -95 rlineto
            47 58 98 30 257 callsubr
            hhcurveto
            130 41 -49 -81 -86 -66.00999450683594 -58 -82 -39 hvcurveto
            -53.99000549316406 -56 callsubr
            198 callsubr
            -18 -34 -7 34 -105 rcurveline
            11 122 callsubr
            10 callgsubr
            163 callgsubr
            -2 callgsubr
            4 rrcurveto
            return
          </CharString>
          <CharString index="49">
            rmoveto
            -273 -269 -213 -382 -250 87 -208 193 89 callsubr
            hvcurveto
            -80 -213.99000549316406 90 callgsubr
            -29 402 callgsubr
            210 rlineto
            -10 41.99000549316406 45.02000427246094 -5 -62 callgsubr
            hhcurveto
            275 268 208.99000549316406 385.99000549316406 246 -85.02000427246094 206 240 callgsubr
            92 hvcurveto
            68 204 120 callsubr
            -68 callsubr
            -69 -194.99000549316406 rlineto
            11 -45 -49 6 -53.99000549316406 hhcurveto
            -190 -984 rmoveto
            -70 87 273 callsubr
            146 174 vvcurveto
            303 94.99000549316406 150 183 43.99000549316406 38.02000427246094 -11 -19 425 callsubr
            vhcurveto
            -293 -830 rlineto
            455 369.99000549316406 rmoveto
            -303 -94 -150 -182.99000549316406 -42 -37 259 callgsubr
            17 -30.990005493164062 vhcurveto
            294.99000549316406 825 rlineto
            65 -88 27 -142 -168 vvcurveto
            endchar
          </CharString>
          <CharString index="50">
            165 -54 callgsubr
            return
          </CharString>
          <CharString index="51">
            -25.990005493164062 return
          </CharString>
          <CharString index="52">
            -85 120 callgsubr
            443.49000549316406 -23 callgsubr
            738.9999847412109 399 callgsubr
            111 callgsubr
            234 524.989990234375 252 vstem
            98 108.99000549316406 340 callgsubr
            -270.00999450683594 23 rlineto
            441 vlineto
            304 callsubr
            18 89 -5 75 hhcurveto
            344 250 196 338 318 callgsubr
            hvcurveto
            -174 -53 106 callgsubr
            -126.02000427246094 hhcurveto
            -246.99000549316406 -111 hlineto
            157 -90 callgsubr
            rlineto
            -1252.990005493164 vlineto
            -168 -23 rlineto
            302 callsubr
            572.9900054931641 rmoveto
            -94 -52 2 7 91 callsubr
            hvcurveto
            717 vlineto
            107 callgsubr
            46.97999572753906 40.02000427246094 12 92 hhcurveto
            233 53 callgsubr
            -90.99000549316406 -234 -322 241 callsubr
            -92 -177 hvcurveto
            endchar
          </CharString>
          <CharString index="53">
            -2.9900054931640625 return
          </CharString>
          <CharString index="54">
            -283 24 rlineto
            467 callgsubr
            vlineto
            320 -10 75.99000549316406 -418 rlineto
            143 hlineto
            -32 547 rlineto
            48 callgsubr
            -1269.990005493164 vlineto
            return
          </CharString>
          <CharString index="55">
            rmoveto
            56.99000549316406 -92 290 callgsubr
            303 callsubr
            211 -20 callsubr
            53 244 rlinecurve
            200 callgsubr
            121 -54 callsubr
            408 callgsubr
            -602.0099945068359 -111 vlineto
            188 478 callgsubr
            -32 -60 callgsubr
            vhcurveto
            -45 -143 172 callsubr
            -103 -94.97999572753906 -25 rrcurveto
            endchar
          </CharString>
          <CharString index="56">
            -64 callsubr
            -1252.990005493164 return
          </CharString>
          <CharString index="57">
            -75 -85.00999450683594 hvcurveto
            return
          </CharString>
          <CharString index="58">
            rmoveto
            -60 callgsubr
            647.9900054931641 145 callgsubr
            vlineto
            -263 18 rlineto
            726 vlineto
            41 55 94 45 97 callsubr
            hhcurveto
            52 43 387 callsubr
            -13 23 hvcurveto
            246 vlineto
            6 8 callsubr
            286 callgsubr
            5 -30 hhcurveto
            -214 -144 -196 -40 -22 hvcurveto
            -2 hlineto
            2 130 rlineto
            63 498 callgsubr
            -286 -40 72 callgsubr
            142 -40 rlineto
            -840 vlineto
            -157 -16 rlineto
            return
          </CharString>
          <CharString index="59">
            101.99000549316406 return
          </CharString>
          <CharString index="60">
            153.99000549316406 return
          </CharString>
          <CharString index="61">
            -48.99000549316406 return
          </CharString>
          <CharString index="62">
            49 120 callgsubr
            1290.490005493164 111 hstemhm
            11.979995727539062 1451 -547 508 hintmask 11100000
            11.979995727539062 -86 callgsubr
            552.0200042724609 -97 callgsubr
            -196.02000427246094 23 317.00999450683594 541 339.00999450683594 -540 -174.02000427246094 -49 callgsubr
            613 -97 callgsubr
            -156 23 -453 668 rlineto
            hintmask 11010000
            409.99000549316406 585 160 -96 callsubr
            -508 -29 callsubr
            173 -90 callgsubr
            -305.99000549316406 -500 -309 500 283 callsubr
            -613.0099945068359 -29 callsubr
            150.02000427246094 -90 callgsubr
            418.97999572753906 -624.9900054931641 -424 -628 rlineto
            hintmask 11100000
            -175 -23 rlineto
            endchar
          </CharString>
          <CharString index="63">
            0 115.49000549316406 915.489990234375 106 hstemhm
            13.979995727539062 485 258 441.02000427246094 hintmask 00000000
            hintmask 11110000
            -58 callgsubr
            -42 callsubr
            rmoveto
            202 callsubr
            485.00999450683594 -42 callsubr
            vlineto
            -165 20.009994506835938 185 266 51.02000427246094 89 243 -356 -131 -19 451 callsubr
            533.0200042724609 -42 callsubr
            vlineto
            -117 18 -354 469.00999450683594 428 callgsubr
            412 125.00999450683594 -4 callsubr
            -441.02000427246094 -106 vlineto
            147 -56 callsubr
            -184 -247 -51 153 callgsubr
            -59 5 callgsubr
            -176 246 138 -4 callsubr
            -530 -106 vlineto
            118 -56 callsubr
            338 -437 -347 -443 -137 -19 rlineto
            endchar
          </CharString>
          <CharString index="64">
            65.99000549316406 return
          </CharString>
          <CharString index="65">
            105.97999572753906 return
          </CharString>
          <CharString index="66">
            227 callsubr
            400 callsubr
            53 -60 78 -68 callgsubr
            return
          </CharString>
          <CharString index="67">
            188 -96 callsubr
            -1182.990005493164 -29 callsubr
            97 callgsubr
            -90 callgsubr
            rlineto
            -157.99000549316406 vlineto
            hintmask 10111000
            -598.0200042724609 -60 callsubr
            -220 -82 -145 vhcurveto
            -64 -34 -39.02000427246094 -56 callsubr
            330 callsubr
            hhcurveto
            89 callsubr
            173 callgsubr
            6 -36 callsubr
            -90 callgsubr
            hvcurveto
            303 callgsubr
            -181.99000549316406 rlineto
            -6 -68 callsubr
            59 -6 56 hhcurveto
            110 463 callgsubr
            292 callgsubr
            109 162 callsubr
            hvcurveto
            100 173 162 callsubr
            358.00999450683594 531.9900054931641 vvcurveto
            181 393.00999450683594 vlineto
            hintmask 01111000
            -1 -1252 -212.99000549316406 0 callsubr
            return
          </CharString>
          <CharString index="68">
            49 callgsubr
            231 callsubr
            469.00999450683594 -8 callsubr
            vstem
            return
          </CharString>
          <CharString index="69">
            -59.99000549316406 return
          </CharString>
          <CharString index="70">
            -233 -509.99000549316406 185.99000549316406 1354.979995727539 106 hstem
            -54 callsubr
            508.97999572753906 251.99000549316406 420 vstem
            return
          </CharString>
          <CharString index="71">
            1.9900054931640625 return
          </CharString>
          <CharString index="72">
            -1.9900054931640625 return
          </CharString>
          <CharString index="73">
            70.99000549316406 88 -5 callgsubr
            return
          </CharString>
          <CharString index="74">
            -0.9900054931640625 453 callgsubr
            -41 122 callgsubr
            -23.990005493164062 -76 hhcurveto
            -1 hlineto
            -104.97999572753906 326 callgsubr
            -58 callgsubr
            230 hvcurveto
            return
          </CharString>
          <CharString index="75">
            -59 callgsubr
            -49 -76 -61 callsubr
            hvcurveto
            return
          </CharString>
          <CharString index="76">
            -301 352 callgsubr
            367 121 return
          </CharString>
          <CharString index="77">
            84.99000549316406 return
          </CharString>
          <CharString index="78">
            -111 vlineto
            return
          </CharString>
          <CharString index="79">
            -23 75 callgsubr
            942.989990234375 124 hstem
            67 callgsubr
            vstem
            return
          </CharString>
          <CharString index="80">
            48.99000549316406 return
          </CharString>
          <CharString index="81">
            hhcurveto
            -237 -240 -204 -262 hvcurveto
            -95 vlineto
            -191 -45 rlineto
            -99 191 -863.9900054931641 vlineto
            return
          </CharString>
          <CharString index="82">
            42 callgsubr
            68 callgsubr
            return
          </CharString>
          <CharString index="83">
            2.9900054931640625 return
          </CharString>
          <CharString index="84">
            -56 callgsubr
            rmoveto
            457.00999450683594 164 214 return
          </CharString>
          <CharString index="85">
            95.99000549316406 return
          </CharString>
          <CharString index="86">
            344 callgsubr
            63 -11 46 hhcurveto
            1 hlineto
            163 94 -62 callgsubr
            150.02000427246094 return
          </CharString>
          <CharString index="87">
            130.99000549316406 return
          </CharString>
          <CharString index="88">
            -24 callgsubr
            508 callsubr
            734.0099945068359 -11 callsubr
            vstem
            return
          </CharString>
          <CharString index="89">
            509 callsubr
            827.9999847412109 259.00999450683594 vstem
            return
          </CharString>
          <CharString index="90">
            267 -104 callsubr
            hlineto
            -80 24 116 callgsubr
            rlinecurve
            431 592 161 -79 callgsubr
            -507.99000549316406 -29 callsubr
            162 -27 -396 -578 rlineto
            -168 367 callgsubr
            319 callgsubr
            -553 441 callsubr
            -163 -24.990005493164062 rlineto
            20 callsubr
            endchar
          </CharString>
          <CharString index="91">
            -23 53 callgsubr
            959.989990234375 112 hstemhm
            -45 callgsubr
            141 -135 212 396 218.99000549316406 -197.99000549316406 128 return
          </CharString>
          <CharString index="92">
            rmoveto
            -385.99000549316406 209 -178.99000549316406 178 callsubr
            155.02000427246094 116.97999572753906 77.97999572753906 55 callgsubr
            71 vhcurveto
            -53 vlineto
            -88.97999572753906 36 -14 71 83 81 123 callgsubr
            -58 callgsubr
            61 callsubr
            vhcurveto
            hintmask 01011100
            104.02000427246094 -118 1526.990005493164 vlineto
            -46 callsubr
            36 rlineto
            -6 hlineto
            -373 -40 rlineto
            -97.00999450683594 vlineto
            200.99000549316406 2 callgsubr
            rlineto
            -373 vlineto
            11 -53.99000549316406 198 callsubr
            8 -65 hhcurveto
            hintmask 10011100
            362 callgsubr
            -220 -279 -347.02000427246094 hvcurveto
            return
          </CharString>
          <CharString index="93">
            82 callgsubr
            427 callsubr
            338 357.99000549316406 418.02000427246094 205 221 callgsubr
            287.99000549316406 174 70 -5 callsubr
            161 callgsubr
          </CharString>
          <CharString index="94">
            197 callsubr
            -30 callsubr
            44 callsubr
            -183 hlineto
            484 callsubr
            170 callsubr
            return
          </CharString>
          <CharString index="95">
            -455.99000549316406 -164 -225.02000427246094 -250 return
          </CharString>
          <CharString index="96">
            165.99000549316406 return
          </CharString>
          <CharString index="97">
            rmoveto
            -462.00999450683594 226 -317.97999572753906 return
          </CharString>
          <CharString index="98">
            471 9 rlineto
            -314.97999572753906 106 callgsubr
            -139 -103.02000427246094 -165 hhcurveto
            -80 -68 18 23 -53 hvcurveto
            -39 156 rlineto
            -123 hlineto
            -36 callsubr
            -203.99000549316406 rlineto
            -64 78 133 -51.99000549316406 181 hhcurveto
            300 235 221.97999572753906 366 2 hvcurveto
            396 -36 callsubr
            -239 210 -321.99000549316406 hhcurveto
            -130 361 callgsubr
            -24 -29 -61 hvcurveto
            2 -262.97999572753906 rlineto
            -7 callgsubr
            hlineto
            44 343 callgsubr
            rlineto
            35 38 54 24 93 hhcurveto
            163.97999572753906 129 -134.99000549316406 -270 19 hvcurveto
            return
          </CharString>
          <CharString index="99">
            235.99000549316406 return
          </CharString>
          <CharString index="100">
            -108.00999450683594 return
          </CharString>
          <CharString index="101">
            96.00999450683594 return
          </CharString>
          <CharString index="102">
            -41 -24 24 hvcurveto
            54 -237 rlineto
            154 hlineto
            -26 callgsubr
            355 rlineto
            17 -71 -194.99000549316406 47 -214 hhcurveto
            return
          </CharString>
          <CharString index="103">
            -68 callsubr
            rlineto
            106 return
          </CharString>
          <CharString index="104">
            113.99000549316406 return
          </CharString>
          <CharString index="105">
            -165.99000549316406 return
          </CharString>
          <CharString index="106">
            -11 callgsubr
            108.99000549316406 129 callsubr
            return
          </CharString>
          <CharString index="107">
            -24.990005493164062 -82 callgsubr
            return
          </CharString>
          <CharString index="108">
            54.99000549316406 return
          </CharString>
          <CharString index="109">
            -37.99000549316406 return
          </CharString>
          <CharString index="110">
            246.99000549316406 return
          </CharString>
          <CharString index="111">
            141.99000549316406 return
          </CharString>
          <CharString index="112">
            rmoveto
            41 -103 rlineto
            712.9900054931641 hlineto
            52.02000427246094 279 -106 218 callsubr
            -81 -147 -425 -32 rlineto
            259.99000549316406 158 270.00999450683594 254 214 vvcurveto
            150 -120.02000427246094 -20 callsubr
            -226 388 callgsubr
            -148 400 callgsubr
            146 callgsubr
            -50 vhcurveto
            69 -78.99000549316406 rlineto
            47 46 101.00999450683594 61 callsubr
            -45 callgsubr
            hhcurveto
            122 191 callsubr
            -74 -107 -246.99000549316406 -365.02000427246094 -260.02000427246094 -155 -94 hvcurveto
            return
          </CharString>
          <CharString index="113">
            vstem
            98 108.99000549316406 -100 callsubr
            return
          </CharString>
          <CharString index="114">
            rmoveto
            -327 162 127 callsubr
            266 130 91 43.99000549316406 366 callsubr
            81 vhcurveto
            -333.99000549316406 vlineto
            -179 -49 callgsubr
            547 -97 callgsubr
            -144 23 rlineto
            482 callsubr
            vlineto
            136 29 rlineto
            107 -509.00999450683594 -107 vlineto
            149 -29 rlineto
            -414.99000549316406 vlineto
            -90 callgsubr
            -44 -75 -36 -134 hhcurveto
            -206 -41 259 callsubr
            303 hvcurveto
            111.99000549316406 vlineto
            136 28 rlineto
            107 -488 -107 vlineto
            122 -29 rlineto
            -194.99000549316406 vlineto
            endchar
          </CharString>
          <CharString index="115">
            -14.990005493164062 return
          </CharString>
          <CharString index="116">
            37.99000549316406 return
          </CharString>
          <CharString index="117">
            418 85 callsubr
            242 callsubr
            -410.00999450683594 rlineto
            149 hlineto
            -15 542 rlineto
            -1070 -7 callsubr
            hlineto
            307 callsubr
            273 callsubr
            rlineto
            -1249.020004272461 vlineto
            -224.99000549316406 -26.990005493164062 57 callgsubr
            return
          </CharString>
          <CharString index="118">
            76.99000549316406 return
          </CharString>
          <CharString index="119">
            4 0 -70 callsubr
            hstemhm
            return
          </CharString>
          <CharString index="120">
            35 169 rlineto
            28 23 55 callgsubr
            42 128 hhcurveto
            169 51 -64 -105 -117 242 callgsubr
            -76 -165 454 callsubr
            -74 333 callsubr
            -1 -135 rlineto
            2 62 callgsubr
            98.02000427246094 13 274 callgsubr
            hhcurveto
            return
          </CharString>
          <CharString index="121">
            474 0 -42 callsubr
            202 callsubr
            134.49000549316406 299.5 130 153.5 126.5 558.989990234375 119 hstemhm
            -176 502.97999572753906 487.010009765625 233 354 127 hintmask 01111011
            return
          </CharString>
          <CharString index="122">
            -276 rlineto
            98 callsubr
            hlineto
            257 278.02000427246094 -84.99000549316406 59 -264.00999450683594 324 callsubr
            return
          </CharString>
          <CharString index="123">
            51.02000427246094 35 callgsubr
            -1 hlineto
            -99 -51 -77 -85 hvcurveto
            return
          </CharString>
          <CharString index="124">
            129 callsubr
            endchar
          </CharString>
          <CharString index="125">
            843 848 rmoveto
            2 -897 rlineto
            -211.99000549316406 95 callsubr
            -115 -43 vhcurveto
            -39.02000427246094 8 callsubr
            106 callsubr
            147 callgsubr
            227 callgsubr
            hlineto
            -316.99000549316406 -41 -2 160 callsubr
          </CharString>
          <CharString index="126">
            -43 callsubr
            750 -10 callsubr
            435.02000427246094 7 vhcurveto
            394 7 292 310.97999572753906 482 vvcurveto
            460 -219.02000427246094 302 -436 -395 -297 -307 -482 vhcurveto
            return
          </CharString>
          <CharString index="127">
            -102 callsubr
            563 -42 callsubr
            vlineto
            361 callgsubr
            27.020004272460938 rlineto
            565 115 vlineto
            169 238 -698 275 callsubr
            hhcurveto
            return
          </CharString>
          <CharString index="128">
            166.99000549316406 34 159 118 97 callgsubr
            vvcurveto
            236 -176 109 -335 -154 -174 -60 callsubr
            -5 -86 vhcurveto
            123 callgsubr
            469 callgsubr
            rlineto
            139 hlineto
            44 176 rlineto
            49 24 192 callgsubr
            35.99000549316406 126 hhcurveto
            155 95.00999450683594 275 callgsubr
            -184 107 callgsubr
            hvcurveto
            -221 1 -147 -93.99000549316406 327 callsubr
            hhcurveto
            -120.02000427246094 -124 145 hlineto
            return
          </CharString>
          <CharString index="129">
            78 callgsubr
            -45 69 -88 hvcurveto
            -1 hlineto
            return
          </CharString>
          <CharString index="130">
            53 140 98 93 106 rlinecurve
            -145 -41 callgsubr
            -278 -295 rlineto
            506 hmoveto
            94.99000549316406 -82 100 53 152 106 81 -22 callsubr
            rlinecurve
            -134 120.02000427246094 -293.99000549316406 -293.00999450683594 rlineto
            return
          </CharString>
          <CharString index="131">
            262 151 -245 -401 -455.99000549316406 return
          </CharString>
          <CharString index="132">
            rmoveto
            457.00999450683594 164 214 251 return
          </CharString>
          <CharString index="133">
            -45 callgsubr
            1322 -41 callgsubr
            168 callgsubr
            return
          </CharString>
          <CharString index="134">
            -60 callsubr
            137 callsubr
            vhcurveto
            0.9900054931640625 hlineto
            105 49 -34 callsubr
            return
          </CharString>
          <CharString index="135">
            132 callgsubr
            248.99000549316406 return
          </CharString>
          <CharString index="136">
            1064.979995727539 1878 rmoveto
            -485.99000549316406 -384 -390 -485 -487 384 -392 485.99000549316406 485 384 392 487 485 -384 390 -485 hvcurveto
            -1635 vmoveto
            -417 -316.99000549316406 278 callsubr
            414 412 315.97999572753906 346.00999450683594 418 416.00999450683594 316 -345 -413 -414 -316 -345.99000549316406 -416.00999450683594 hvcurveto
            return
          </CharString>
          <CharString index="137">
            12 callgsubr
            rlineto
            1.9900054931640625 151 callsubr
            198 callgsubr
            139 rcurveline
            -1 hlineto
            return
          </CharString>
          <CharString index="138">
            216 266 callsubr
            -2 -58 callgsubr
            vhcurveto
            174 callgsubr
            375 callsubr
            -7 -42.99000549316406 271 callgsubr
            return
          </CharString>
          <CharString index="139">
            470 callsubr
            -1 18 -1 11 vhcurveto
            -163 hlineto
            -29 -5 -45 -38 -100.99000549316406 -46 -7 callsubr
            return
          </CharString>
          <CharString index="140">
            392.99000549316406 -4 -223 209 -307 hhcurveto
            -346.00999450683594 -278 -269 -419.99000549316406 -40 hvcurveto
            -132 -36 callsubr
            -28 58 52 vvcurveto
            34 28 83.00999450683594 17 19 vhcurveto
            -167 28 rlineto
            -22.020004272460938 85 callsubr
            -45.970001220703125 -86.02000427246094 -76.99000549316406 vvcurveto
            -153 274 callsubr
            146 callgsubr
            184 -35 callsubr
            vhcurveto
            return
          </CharString>
          <CharString index="141">
            1585.990005493164 rmoveto
            -158 558 158 -558 vlineto
            return
          </CharString>
          <CharString index="142">
            258 callgsubr
            -86 callgsubr
            503.00999450683594 -75 callgsubr
            vlineto
            -144 18 rlineto
            158 vlineto
            227 callgsubr
            105.99000549316406 196.02000427246094 194 281.97999572753906 526 callsubr
            81 callgsubr
            -19 57 callgsubr
            501 108.99000549316406 456 callgsubr
            17 -391.99000549316406 590.9900054931641 rlineto
            return
          </CharString>
          <CharString index="143">
            379 callgsubr
            1269 139 callsubr
            178 callsubr
            return
          </CharString>
          <CharString index="144">
            291 284 157 331 callsubr
            rlineto
            -48 callsubr
            -509.00999450683594 127 callgsubr
            vlineto
            161.02000427246094 -29 -446.02000427246094 -465 122 callsubr
            114 rlineto
            return
          </CharString>
          <CharString index="145">
            rmoveto
            2 4 callgsubr
            return
          </CharString>
          <CharString index="146">
            421 callgsubr
            299 callsubr
            -46 69 435 callsubr
            -98 return
          </CharString>
          <CharString index="147">
            68 88 71 -46 callsubr
            -43 callsubr
            -88 165 callgsubr
            return
          </CharString>
          <CharString index="148">
            1827.979995727539 rmoveto
            -76 52 -58.99000549316406 return
          </CharString>
          <CharString index="149">
            500 119 callsubr
            return
          </CharString>
          <CharString index="150">
            157 29 rlineto
            107 -547 -107 vlineto
            167 -29 rlineto
            -878.9900054931641 -437 878.9900054931641 vlineto
            156 29 rlineto
            107 -543 -107 vlineto
            166 -29 -2 -878.9900054931641 rlineto
            -434 879.9900054931641 hlineto
            -11 callsubr
            28 rlineto
            107 -550.9900054931641 -107 vlineto
            274 callsubr
            481 callgsubr
            -167 286 callsubr
            rlineto
            endchar
          </CharString>
          <CharString index="151">
            -59 278.02000427246094 -33 callgsubr
            return
          </CharString>
          <CharString index="152">
            269 79 callgsubr
            112 callsubr
            5 105 return
          </CharString>
          <CharString index="153">
            89 callsubr
            -50 -66 -87.99000549316406 -103.02000427246094 vvcurveto
            -78.99000549316406 35 -54 242 callsubr
            -35 vhcurveto
            return
          </CharString>
          <CharString index="154">
            rmoveto
            170.99000549316406 131 -536.9900054931641 174 hhcurveto
            86 callsubr
            -104 callsubr
            hlineto
            -83 24 -100 200 callgsubr
            -134.99000549316406 360 -191 99 rlinecurve
            return
          </CharString>
          <CharString index="155">
            1693 rmoveto
            -181 128.99000549316406 292 callsubr
            214.02000427246094 59 callsubr
            -3 23 -1 16 vhcurveto
            return
          </CharString>
          <CharString index="156">
            66.99000549316406 142 callgsubr
            return
          </CharString>
          <CharString index="157">
            1903.979995727539 rmoveto
            -158 570 158 -570 vlineto
            return
          </CharString>
          <CharString index="158">
            3 callsubr
            73 callgsubr
            return
          </CharString>
          <CharString index="159">
            -96 callgsubr
            vlineto
            return
          </CharString>
          <CharString index="160">
            71 callgsubr
            -49 -50 callsubr
            42 callsubr
            49 158 callsubr
            return
          </CharString>
          <CharString index="161">
            135.99000549316406 -13 -180 vvcurveto
            -187 -88 -105 -46 91 callsubr
            479 callsubr
            -61 514 callgsubr
            93 50 166 197 268 vvcurveto
            return
          </CharString>
          <CharString index="162">
            68.00999450683594 return
          </CharString>
          <CharString index="163">
            41 callsubr
            268 callgsubr
            -62 callgsubr
            68 88 71 return
          </CharString>
          <CharString index="164">
            290 callgsubr
            vstem
            220 1219.990005493164 rmoveto
            -175 257 callsubr
            -165 115 vhcurveto
            1 hlineto
            68 50 45.02000427246094 79 hvcurveto
            124 -136 12.990005493164062 180 vvcurveto
            187 88 105 46 37 vhcurveto
            24 vlineto
            -62 162 callsubr
            rlineto
            -2 hlineto
            -93 106 callsubr
            -2 callsubr
            -197 -268 vvcurveto
            return
          </CharString>
          <CharString index="165">
            -46 191 callsubr
            98 9 callsubr
            -5 46.02000427246094 -29 hvcurveto
            -170 hlineto
            return
          </CharString>
          <CharString index="166">
            204 133 161.02000427246094 181.99000549316406 20.009994506835938 return
          </CharString>
          <CharString index="167">
            -159.99000549316406 return
          </CharString>
          <CharString index="168">
            55.99000549316406 return
          </CharString>
          <CharString index="169">
            77.99000549316406 return
          </CharString>
          <CharString index="170">
            39 344 callsubr
            rlineto
            487 hlineto
            6 -19 callgsubr
            rlineto
            -629 hlineto
            365 callgsubr
            -489 277 callgsubr
            -53 rlineto
            192 callsubr
            24.990005493164062 90 35.99000549316406 345 callgsubr
            hhcurveto
            -19 callgsubr
            69 219 callsubr
            172 callsubr
            -150 -151 -87 -200.99000549316406 return
          </CharString>
          <CharString index="171">
            -155 -70 218 callsubr
            -48 callsubr
            46 24 46 36 32 hvcurveto
            -11 46 51 -6 56.02000427246094 hhcurveto
            return
          </CharString>
          <CharString index="172">
            453 callsubr
            235 355.010009765625 129 vstem
            return
          </CharString>
          <CharString index="173">
            -34 callsubr
            77 vhcurveto
            110 callsubr
            104.02000427246094 282 callgsubr
            return
          </CharString>
          <CharString index="174">
            448 callgsubr
            736 255.00999450683594 return
          </CharString>
          <CharString index="175">
            85 callsubr
            24 -18 -38 vvcurveto
            -52 return
          </CharString>
          <CharString index="176">
            -90 callgsubr
            rlineto
            -1251 vlineto
            return
          </CharString>
          <CharString index="177">
            -706 546.9700012207031 295.00999450683594 hstem
            386 callsubr
            501 callsubr
            203 682.9900054931641 rmoveto
            -83 49 callsubr
            242 callsubr
            97 72 477 callsubr
            146 callgsubr
            -92 vhcurveto
            endchar
          </CharString>
          <CharString index="178">
            225 callsubr
            -4 -16 0 -24 2 callgsubr
            vvcurveto
            return
          </CharString>
          <CharString index="179">
            124.99000549316406 return
          </CharString>
          <CharString index="180">
            120.02000427246094 1 callsubr
            -139 -175 1 hvcurveto
            962.0099945068359 -184 rmoveto
            -213.02000427246094 240 callgsubr
            -157 -276.99000549316406 -226.02000427246094 507 callgsubr
            193 153 277.00999450683594 233.99000549316406 -111 188 -256 hvcurveto
            return
          </CharString>
          <CharString index="181">
            -43 rlineto
            185 callsubr
            return
          </CharString>
          <CharString index="182">
            61.99000549316406 return
          </CharString>
          <CharString index="183">
            286 168 120.97000122070312 244.02000427246094 221 -134.99000549316406 122.99000549316406 -302 hvcurveto
            -221 315 hlineto
            306 callsubr
            return
          </CharString>
          <CharString index="184">
            1739 rmoveto
            121 callgsubr
            247 callgsubr
            283.00999450683594 449 callsubr
            return
          </CharString>
          <CharString index="185">
            hlineto
            158 -90 callgsubr
            rlineto
            return
          </CharString>
          <CharString index="186">
            108.00999450683594 return
          </CharString>
          <CharString index="187">
            265.99000549316406 return
          </CharString>
          <CharString index="188">
            -669 rmoveto
            28 5 136 -10 callgsubr
            -54 59 -86 vhcurveto
            -10 hlineto
            -38 242 callgsubr
            356 callgsubr
            -21 -58.99000549316406 -38 375 callgsubr
            return
          </CharString>
          <CharString index="189">
            709 98 callgsubr
            rmoveto
            -47 callsubr
            -18 741 1810.979995727539 -152 22 -743 297 callsubr
            -577 844.9799957275391 rmoveto
            -115 vlineto
            -38 82 109 2 callgsubr
            112 hhcurveto
            305.99000549316406 148 209 callgsubr
            306 callgsubr
            hvcurveto
            return
          </CharString>
          <CharString index="190">
            -659 438 -66 -112 463.00999450683594 -401 -468.00999450683594 -392.00999450683594 71 293 callgsubr
            659 425 rlineto
            156 vlineto
            return
          </CharString>
          <CharString index="191">
            378 callsubr
            40 hvcurveto
            -98 64 325 callsubr
            -22 return
          </CharString>
          <CharString index="192">
            -13.990005493164062 return
          </CharString>
          <CharString index="193">
            230.99000549316406 return
          </CharString>
          <CharString index="194">
            -8.990005493164062 return
          </CharString>
          <CharString index="195">
            rmoveto
            192 hlineto
            208 127 -105 -228 -229.99000549316406 -116 -130 -220 -104 -42 8 11 return
          </CharString>
          <CharString index="196">
            -90.00999450683594 return
          </CharString>
          <CharString index="197">
            159.99000549316406 return
          </CharString>
          <CharString index="198">
            -36.99000549316406 return
          </CharString>
          <CharString index="199">
            -123.99000549316406 return
          </CharString>
          <CharString index="200">
            29 callgsubr
            2 hlineto
            92 36 259.99000549316406 302 callgsubr
            return
          </CharString>
          <CharString index="201">
            173 callsubr
            rlineto
            -180 hlineto
            return
          </CharString>
          <CharString index="202">
            -30 -2 callsubr
            return
          </CharString>
          <CharString index="203">
            -20.009994506835938 return
          </CharString>
          <CharString index="204">
            147.99000549316406 return
          </CharString>
          <CharString index="205">
            182.99000549316406 return
          </CharString>
          <CharString index="206">
            -214 -1043 353 callgsubr
            45 52 -5 58 hhcurveto
            201 hlineto
            201 41 -57 -121.02000427246094 198 callgsubr
            -182 -83 -174 hvcurveto
            -2 hlineto
            -222.99000549316406 -81 105 callgsubr
            -47 callsubr
            86 29 60 35 243 callgsubr
            hvcurveto
            endchar
          </CharString>
          <CharString index="207">
            -48 -76 -61 callsubr
            hvcurveto
            return
          </CharString>
          <CharString index="208">
            270 callsubr
            281 252 callsubr
            -280.97999572753906 94 callsubr
            return
          </CharString>
          <CharString index="209">
            130 callsubr
            347 callgsubr
            -49 -50 callsubr
            return
          </CharString>
          <CharString index="210">
            132 callsubr
            80 -68 rlineto
            1 hlineto
            return
          </CharString>
          <CharString index="211">
            164.99000549316406 return
          </CharString>
          <CharString index="212">
            14.990005493164062 return
          </CharString>
          <CharString index="213">
            -49.99000549316406 return
          </CharString>
          <CharString index="214">
            145 callsubr
            28 rlineto
            107 -465 -107 vlineto
            168 -29 -274 -727.9900054931641 -24 12 callgsubr
            -23.990005493164062 201 callsubr
            -269 730.9900054931641 -11 callsubr
            28 rlineto
            107 -543.9900054931641 -107 vlineto
            -45 callgsubr
            -29 return
          </CharString>
          <CharString index="215">
            72 callsubr
            hstem
            274.97999572753906 289 callgsubr
            418 203.50999450683594 vstem
            return
          </CharString>
          <CharString index="216">
            190.02000427246094 465 105 callsubr
            return
          </CharString>
          <CharString index="217">
            -56 callgsubr
            hlineto
            return
          </CharString>
          <CharString index="218">
            87 callgsubr
            vlineto
            return
          </CharString>
          <CharString index="219">
            99.97999572753906 return
          </CharString>
          <CharString index="220">
            vvcurveto
            -126 -50 193 callgsubr
            -92 vhcurveto
            -1 453 callgsubr
            -41.97999572753906 4.0200042724609375 10 -28 hvcurveto
            -1 134 callsubr
            return
          </CharString>
          <CharString index="221">
            211 callsubr
            88.99000549316406 224 -185.99000549316406 -8 callsubr
            -185 187 return
          </CharString>
          <CharString index="222">
            -103.02000427246094 hlineto
            -42.99000549316406 -351.99000549316406 rlineto
            286 callsubr
            75 155 -53.97999572753906 206 hhcurveto
            return
          </CharString>
          <CharString index="223">
            64 58 -22 callsubr
            86 vvcurveto
            139.02000427246094 -128 109 return
          </CharString>
          <CharString index="224">
            161 callsubr
            462.010009765625 228 return
          </CharString>
          <CharString index="225">
            hmoveto
            -74 -62 callgsubr
            -63 return
          </CharString>
          <CharString index="226">
            hmoveto
            -1 callgsubr
            return
          </CharString>
          <CharString index="227">
            -96.00999450683594 return
          </CharString>
          <CharString index="228">
            -97.02000427246094 return
          </CharString>
          <CharString index="229">
            4.0200042724609375 return
          </CharString>
          <CharString index="230">
            150.99000549316406 return
          </CharString>
          <CharString index="231">
            243.99000549316406 return
          </CharString>
          <CharString index="232">
            -141.99000549316406 return
          </CharString>
          <CharString index="233">
            -106.99000549316406 return
          </CharString>
          <CharString index="234">
            -94.99000549316406 return
          </CharString>
          <CharString index="235">
            225.99000549316406 return
          </CharString>
          <CharString index="236">
            216 callsubr
            -49 34 rlineto
            -35 callsubr
            hlineto
            364 callsubr
            74 callsubr
            164 96 callsubr
            rlineto
            -1395 vlineto
            334 callsubr
            return
          </CharString>
          <CharString index="237">
            532 callsubr
            49 22 callsubr
            return
          </CharString>
          <CharString index="238">
            -21 callgsubr
            rlineto
            return
          </CharString>
          <CharString index="239">
            1700.990005493164 rmoveto
            return
          </CharString>
          <CharString index="240">
            -42 -150 rlineto
            -61 -51 -61 callsubr
            -57 363 callsubr
            hhcurveto
            -218 -196 216 406 -10 hvcurveto
            3 -1 4 4 vvcurveto
            955 -64 callgsubr
            rlineto
            11 47.99000549316406 -24 callsubr
            75 431 callsubr
            vvcurveto
            return
          </CharString>
          <CharString index="241">
            -21 callsubr
            274 callgsubr
            hvcurveto
            6 return
          </CharString>
          <CharString index="242">
            -62 callgsubr
            104 vvcurveto
            88 217 callsubr
            61 103 116 83 -70 -111 -57 -35 -76 -71 305 callsubr
            vhcurveto
            return
          </CharString>
          <CharString index="243">
            -33.50999450683594 492.5 return
          </CharString>
          <CharString index="244">
            75.02000427246094 return
          </CharString>
          <CharString index="245">
            -136.99000549316406 return
          </CharString>
          <CharString index="246">
            111 111 callgsubr
            return
          </CharString>
          <CharString index="247">
            -65 -99 -153 -84.99000549316406 -22 callsubr
            228 callsubr
            -43 callsubr
            9 callsubr
            63 return
          </CharString>
          <CharString index="248">
            170.97999572753906 322 279 -184 167 -334.99000549316406 hvcurveto
            -256 return
          </CharString>
          <CharString index="249">
            -93 262 -216 105 callgsubr
            -32 rrcurveto
            return
          </CharString>
          <CharString index="250">
            3 callgsubr
            hvcurveto
            return
          </CharString>
          <CharString index="251">
            -112.99000549316406 return
          </CharString>
          <CharString index="252">
            129.99000549316406 return
          </CharString>
          <CharString index="253">
            -113.00999450683594 return
          </CharString>
          <CharString index="254">
            35 169 rlineto
            28 24 11 callsubr
            42 128 hhcurveto
            169 52 -64 -105 -117 -84.99000549316406 -76 -165 454 callsubr
            -74 333 callsubr
            -1 -135 rlineto
            2 259 callgsubr
            97 13 8 hhcurveto
            return
          </CharString>
          <CharString index="255">
            -1510.009994506836 rmoveto
            -61 callsubr
            291 callgsubr
            92 callgsubr
            -91 -61 callsubr
            66.99000549316406 -51.99000549316406 74 91.02000427246094 76 60 98 -11 callgsubr
            -44 63 -98 hvcurveto
            return
          </CharString>
          <CharString index="256">
            149.02000427246094 50 94 106 115 vvcurveto
            173 -148 100 -280 vhcurveto
            -217 -85 -55 -137.99000549316406 hhcurveto
            return
          </CharString>
          <CharString index="257">
            -22 callsubr
            -86 callgsubr
            return
          </CharString>
          <CharString index="258">
            hlineto
            92 36 260.02000427246094 212 1 callsubr
            93 return
          </CharString>
          <CharString index="259">
            -23 -82 callgsubr
            return
          </CharString>
          <CharString index="260">
            -7.9900054931640625 return
          </CharString>
          <CharString index="261">
            207 callsubr
            605.0099945068359 111 return
          </CharString>
          <CharString index="262">
            329 callgsubr
            373.00999450683594 188 hstem
            257.97999572753906 229 return
          </CharString>
          <CharString index="263">
            504 callgsubr
            -333 vlineto
            -359 90 callsubr
            293 callsubr
            276.00999450683594 122 return
          </CharString>
          <CharString index="264">
            126 callgsubr
            565.0099945068359 184 callsubr
            235 699.989990234375 235 vstem
            return
          </CharString>
          <CharString index="265">
            272 callgsubr
            217 callgsubr
            return
          </CharString>
          <CharString index="266">
            -23 -47 callsubr
            169 callsubr
            return
          </CharString>
          <CharString index="267">
            96 callgsubr
            146 -41 rlineto
            endchar
          </CharString>
          <CharString index="268">
            hstemhm
            192.97999572753906 228 return
          </CharString>
          <CharString index="269">
            60.99000549316406 return
          </CharString>
          <CharString index="270">
            371 callgsubr
            292 callgsubr
            502.97999572753906 405.02000427246094 73 callgsubr
            404.99998474121094 505.02000427246094 vstem
            return
          </CharString>
          <CharString index="271">
            262.97999572753906 123 callsubr
            return
          </CharString>
          <CharString index="272">
            -12 callgsubr
            -61 callsubr
            -19 -89 -50 17 -23 23 -14 hvcurveto
            return
          </CharString>
          <CharString index="273">
            42 callsubr
            -27 callsubr
            272 callgsubr
            return
          </CharString>
          <CharString index="274">
            -127 -23 192.97999572753906 1241.010009765625 111 return
          </CharString>
          <CharString index="275">
            322 callgsubr
            128 callsubr
            return
          </CharString>
          <CharString index="276">
            918.989990234375 118 return
          </CharString>
          <CharString index="277">
            -300.00999450683594 rlineto
            return
          </CharString>
          <CharString index="278">
            0 -104 callsubr
            return
          </CharString>
          <CharString index="279">
            -119.00999450683594 return
          </CharString>
          <CharString index="280">
            397.99000549316406 return
          </CharString>
          <CharString index="281">
            1885 rmoveto
            69 120 callsubr
            381 callsubr
            -127 92 -29 rrcurveto
            1 hlineto
            277 callsubr
            68 -331.02000427246094 417 callsubr
            return
          </CharString>
          <CharString index="282">
            294 callgsubr
            -142 125 callsubr
            -46 191 callsubr
            98 9 callsubr
            return
          </CharString>
          <CharString index="283">
            27 0 -41 callgsubr
            545.989990234375 118 636 117 358 callgsubr
            return
          </CharString>
          <CharString index="284">
            193.99000549316406 return
          </CharString>
          <CharString index="285">
            236.99000549316406 return
          </CharString>
          <CharString index="286">
            -4 23 3 rrcurveto
            98 callsubr
            40 callgsubr
            -50 421 callsubr
            -35 callsubr
            96 callgsubr
            return
          </CharString>
          <CharString index="287">
            269 205 165 244.99000549316406 62 -13 53 -22 46 hvcurveto
            209.99000549316406 177 callsubr
            -53.99000549316406 hlineto
            -123 -80 219 callsubr
            -33 -28.020004272460938 hvcurveto
            return
          </CharString>
          <CharString index="288">
            -553 348 vlineto
            163 29 rlineto
            107 -534 -107 vlineto
            146 -29 rlineto
            return
          </CharString>
          <CharString index="289">
            55 callsubr
            -46 69 -86 165 callgsubr
            return
          </CharString>
          <CharString index="290">
            521 callgsubr
            71 89 -48 callgsubr
            return
          </CharString>
          <CharString index="291">
            111 hstem
            264.99000549316406 return
          </CharString>
          <CharString index="292">
            127 callsubr
            vlineto
            return
          </CharString>
          <CharString index="293">
            1297.979995727539 1537.990005493164 rmoveto
            -656 -1537.990005493164 rlineto
            168 hlineto
            656.0200042724609 1537.990005493164 rlineto
            -168.02000427246094 hlineto
            -1189.990005493164 -464 rmoveto
            return
          </CharString>
          <CharString index="294">
            -586 -25 callsubr
            vstem
            return
          </CharString>
          <CharString index="295">
            -96 callgsubr
            686 -97 callgsubr
            return
          </CharString>
          <CharString index="296">
            1850.979995727539 rmoveto
            123 52 -167 165 hhcurveto
            return
          </CharString>
          <CharString index="297">
            144.02000427246094 return
          </CharString>
          <CharString index="298">
            67.00999450683594 return
          </CharString>
          <CharString index="299">
            11.020004272460938 return
          </CharString>
          <CharString index="300">
            113 116 callsubr
            -232.02000427246094 -199.99000549316406 -170 -100 -180 -115 329 callsubr
            -71 87 -53 vhcurveto
            return
          </CharString>
          <CharString index="301">
            353 callgsubr
            -48 -7 -63 -24 callsubr
            -61 callsubr
            rrcurveto
            -264.99000549316406 10.020004272460938 140.99000549316406 98 callgsubr
            252 hhcurveto
            307 return
          </CharString>
          <CharString index="302">
            268 51 -148 -146 -213 -114 -107 -183 309 callsubr
            -83 23 30 -53 hvcurveto
            return
          </CharString>
          <CharString index="303">
            130 callgsubr
            92 61 return
          </CharString>
          <CharString index="304">
            1712.990005493164 rmoveto
            return
          </CharString>
          <CharString index="305">
            -62.02000427246094 return
          </CharString>
          <CharString index="306">
            -95.99000549316406 return
          </CharString>
          <CharString index="307">
            59.99000549316406 return
          </CharString>
          <CharString index="308">
            72.00999450683594 return
          </CharString>
          <CharString index="309">
            -105.97999572753906 return
          </CharString>
          <CharString index="310">
            408 callgsubr
            -601.9900054931641 -29 callsubr
            187.99000549316406 478 callgsubr
            return
          </CharString>
          <CharString index="311">
            rmoveto
            326 callsubr
            -12 callgsubr
            return
          </CharString>
          <CharString index="312">
            136 hstemhm
            490.97999572753906 137.99000549316406 392.50999450683594 229.49000549316406 return
          </CharString>
          <CharString index="313">
            109 106 40 hvcurveto
            -98 75 callsubr
            rlineto
            -35 return
          </CharString>
          <CharString index="314">
            171 callsubr
            589 -75 callgsubr
            return
          </CharString>
          <CharString index="315">
            -728 -22 callgsubr
            return
          </CharString>
          <CharString index="316">
            158.99000549316406 return
          </CharString>
          <CharString index="317">
            -10.020004272460938 return
          </CharString>
          <CharString index="318">
            -44 callgsubr
            hstemhm
            return
          </CharString>
          <CharString index="319">
            150.00999450683594 649.0000152587891 140 -111 111 return
          </CharString>
          <CharString index="320">
            39 rlineto
            -5 hlineto
            return
          </CharString>
          <CharString index="321">
            vlineto
            384 callsubr
            -69 190 callsubr
            403 callgsubr
            -172 60 callsubr
            121 callsubr
            -64 -72.00999450683594 vhcurveto
            9.020004272460938 return
          </CharString>
          <CharString index="322">
            224 callgsubr
            hstem
            428 callsubr
            479 318 460 callsubr
            318.02000427246094 464 callgsubr
            vstem
            return
          </CharString>
          <CharString index="323">
            -96 callgsubr
            560 -97 callgsubr
            -170 17 rlineto
            1519 vlineto
            return
          </CharString>
          <CharString index="324">
            84.00999450683594 return
          </CharString>
          <CharString index="325">
            21.009994506835938 return
          </CharString>
          <CharString index="326">
            -65.99000549316406 return
          </CharString>
          <CharString index="327">
            67.99000549316406 return
          </CharString>
          <CharString index="328">
            15.009994506835938 return
          </CharString>
          <CharString index="329">
            -35 callsubr
            147 -111 106 -196.02000427246094 17.990005493164062 rrcurveto
            return
          </CharString>
          <CharString index="330">
            -222 -111 rmoveto
            159 -72 179 -42 -120 vvcurveto
            -92 return
          </CharString>
          <CharString index="331">
            hstemhm
            590.9900054931641 206 -117 208.99000549316406 return
          </CharString>
          <CharString index="332">
            16 0 13 62 callgsubr
            vvcurveto
            -118 hlineto
            return
          </CharString>
          <CharString index="333">
            280 188.010009765625 281 return
          </CharString>
          <CharString index="334">
            198.97999572753906 return
          </CharString>
          <CharString index="335">
            132.02000427246094 return
          </CharString>
          <CharString index="336">
            409 callgsubr
            110 callgsubr
            -46 69 -86.02000427246094 hvcurveto
            return
          </CharString>
          <CharString index="337">
            -22 callgsubr
            419.489990234375 79 callsubr
            384.99000549316406 107 hstem
            245.99000549316406 223 310.989990234375 479 vstem
            return
          </CharString>
          <CharString index="338">
            -30 callsubr
            86 callgsubr
            return
          </CharString>
          <CharString index="339">
            -19 -89 -50 17 -23 23 -14 hvcurveto
            return
          </CharString>
          <CharString index="340">
            rmoveto
            -115 vlineto
            2 callsubr
            82 109.02000427246094 -20 111.99000549316406 hhcurveto
            306.00999450683594 97 callsubr
            146 179 hvcurveto
            return
          </CharString>
          <CharString index="341">
            -183 -24 rlineto
            1099 -7 callsubr
            rmoveto
            -64 callgsubr
            179 callgsubr
            rlineto
            461 callsubr
            183 -6 callgsubr
            63 hhcurveto
            return
          </CharString>
          <CharString index="342">
            506 callsubr
            1 callsubr
            142 callsubr
            1 450 callsubr
            433 callsubr
            406 rlineto
            return
          </CharString>
          <CharString index="343">
            41 callsubr
            62 callsubr
            211 callgsubr
            50 68 88 71 -49 -43 callsubr
            -88 165 callgsubr
            return
          </CharString>
          <CharString index="344">
            190 callsubr
            6 87 -77.99000549316406 -88 vvcurveto
            -135 -106 -63 -202 return
          </CharString>
          <CharString index="345">
            143 callgsubr
            284 callsubr
            rlineto
            return
          </CharString>
          <CharString index="346">
            223.99000549316406 return
          </CharString>
          <CharString index="347">
            219.99000549316406 return
          </CharString>
          <CharString index="348">
            -164.99000549316406 return
          </CharString>
          <CharString index="349">
            62.02000427246094 return
          </CharString>
          <CharString index="350">
            231.99000549316406 return
          </CharString>
          <CharString index="351">
            329 210 callgsubr
            58 -294.00999450683594 rlineto
            138.02000427246094 hlineto
            210 callsubr
            426 rlineto
            -889 -107 hlineto
            148 -29 rlineto
            return
          </CharString>
          <CharString index="352">
            122 callsubr
            10 -28 hvcurveto
            -1 344 callgsubr
            return
          </CharString>
          <CharString index="353">
            1381.990005493164 rmoveto
            return
          </CharString>
          <CharString index="354">
            310 callgsubr
            hintmask 01111100
            -102 callsubr
            return
          </CharString>
          <CharString index="355">
            437 callgsubr
            217.00999450683594 299 -143 188 hstemhm
            257.97999572753906 229 return
          </CharString>
          <CharString index="356">
            167.02000427246094 128 -134 -303.97999572753906 -3 hvcurveto
            -326 -5 -136 -157 -189.99000549316406 hhcurveto
            -91 -83 23 42 -18 hvcurveto
            return
          </CharString>
          <CharString index="357">
            92 callsubr
            -89 -27 376 callgsubr
            return
          </CharString>
          <CharString index="358">
            124 147.989990234375 225 callgsubr
            return
          </CharString>
          <CharString index="359">
            258 callsubr
            5 callgsubr
            58 return
          </CharString>
          <CharString index="360">
            -1718.990005493164 -96 callgsubr
            return
          </CharString>
          <CharString index="361">
            232.97999572753906 229 return
          </CharString>
          <CharString index="362">
            -125.00999450683594 return
          </CharString>
          <CharString index="363">
            228.99000549316406 return
          </CharString>
          <CharString index="364">
            90.99000549316406 return
          </CharString>
          <CharString index="365">
            -280.99000549316406 return
          </CharString>
          <CharString index="366">
            63.02000427246094 return
          </CharString>
          <CharString index="367">
            350 callsubr
            -85 59 -264 324 callsubr
            return
          </CharString>
          <CharString index="368">
            33 callgsubr
            50 70 88.99000549316406 70 -46.02000427246094 530 callsubr
            return
          </CharString>
          <CharString index="369">
            hvcurveto
            41 120 callsubr
            rlineto
            46 59 127 48 111 hhcurveto
            177.99000549316406 147 96 callgsubr
            -306.02000427246094 return
          </CharString>
          <CharString index="370">
            333 callgsubr
            rlineto
            2 hlineto
            110 58 139 204.99000549316406 238 vvcurveto
            158 -65 -22 callsubr
            -100 vhcurveto
            endchar
          </CharString>
          <CharString index="371">
            -633 1410.990005493164 111 hstem
            288.99000549316406 233 vstem
            return
          </CharString>
          <CharString index="372">
            90 callsubr
            6.9999847412109375 159 hstemhm
            return
          </CharString>
          <CharString index="373">
            123 140 174 219 callgsubr
            0 13 return
          </CharString>
          <CharString index="374">
            158 9 380 callsubr
            return
          </CharString>
          <CharString index="375">
            11 callsubr
            vhcurveto
            1 hlineto
            return
          </CharString>
          <CharString index="376">
            1955.979995727539 rmoveto
            -174 return
          </CharString>
          <CharString index="377">
            -58 296 121 callgsubr
            return
          </CharString>
          <CharString index="378">
            hlineto
            -296.02000427246094 return
          </CharString>
          <CharString index="379">
            -38 callsubr
            rlineto
            return
          </CharString>
          <CharString index="380">
            -29.990005493164062 return
          </CharString>
          <CharString index="381">
            160.99000549316406 return
          </CharString>
          <CharString index="382">
            148.99000549316406 return
          </CharString>
          <CharString index="383">
            58.97999572753906 return
          </CharString>
          <CharString index="384">
            80.02000427246094 return
          </CharString>
          <CharString index="385">
            345.99000549316406 return
          </CharString>
          <CharString index="386">
            225 callgsubr
            hstemhm
            -27 callsubr
            141 484.97999572753906 241 -192.99000549316406 return
          </CharString>
          <CharString index="387">
            406 callsubr
            rmoveto
            -143 61 callsubr
            138 callsubr
            -62 callgsubr
            104 vvcurveto
            88 327 callgsubr
            61 return
          </CharString>
          <CharString index="388">
            131 callsubr
            endchar
          </CharString>
          <CharString index="389">
            169 callgsubr
            -46 146 callgsubr
            return
          </CharString>
          <CharString index="390">
            181 -96 callsubr
            return
          </CharString>
          <CharString index="391">
            153 callgsubr
            -38 callsubr
            return
          </CharString>
          <CharString index="392">
            304 callgsubr
            vlineto
            -147 -17 rlineto
            return
          </CharString>
          <CharString index="393">
            -27.020004272460938 return
          </CharString>
          <CharString index="394">
            287.97999572753906 return
          </CharString>
          <CharString index="395">
            239.97999572753906 return
          </CharString>
          <CharString index="396">
            -41.99000549316406 return
          </CharString>
          <CharString index="397">
            178.99000549316406 return
          </CharString>
          <CharString index="398">
            205.99000549316406 return
          </CharString>
          <CharString index="399">
            -161.02000427246094 return
          </CharString>
          <CharString index="400">
            -107.00999450683594 return
          </CharString>
          <CharString index="401">
            447 79 callgsubr
            187.97999572753906 272.02000427246094 201 callgsubr
            -122 168 -278 6 hvcurveto
            return
          </CharString>
          <CharString index="402">
            -510.99000549316406 146 364.99000549316406 return
          </CharString>
          <CharString index="403">
            vlineto
            -48 callsubr
            return
          </CharString>
          <CharString index="404">
            -1814.979995727539 rlineto
            return
          </CharString>
          <CharString index="405">
            368 callsubr
            -169.99000549316406 hlineto
            -29 return
          </CharString>
          <CharString index="406">
            -27 callsubr
            78 callgsubr
            return
          </CharString>
          <CharString index="407">
            hlineto
            163 94 -62 callgsubr
            150.02000427246094 7 hvcurveto
            return
          </CharString>
          <CharString index="408">
            -48 callsubr
            -86 callgsubr
            return
          </CharString>
          <CharString index="409">
            584.9900054931641 return
          </CharString>
          <CharString index="410">
            39.02000427246094 return
          </CharString>
          <CharString index="411">
            -3.9900054931640625 return
          </CharString>
          <CharString index="412">
            -44.99000549316406 return
          </CharString>
          <CharString index="413">
            194.99000549316406 return
          </CharString>
          <CharString index="414">
            217.99000549316406 return
          </CharString>
          <CharString index="415">
            -92.02000427246094 return
          </CharString>
          <CharString index="416">
            -131.99000549316406 return
          </CharString>
          <CharString index="417">
            vlineto
            -131 450 callgsubr
            503.00999450683594 -97 callgsubr
            -144.02000427246094 17 rlineto
            return
          </CharString>
          <CharString index="418">
            79 callsubr
            90 callgsubr
            38 191 callgsubr
            45 -30 hvcurveto
            -161 hlineto
            -1 -11 -1 -18 -11 vvcurveto
            return
          </CharString>
          <CharString index="419">
            411 callgsubr
            224 return
          </CharString>
          <CharString index="420">
            162 -96 callsubr
            -554 441 callsubr
            return
          </CharString>
          <CharString index="421">
            166 -62 callgsubr
            -146 -145 -23 -35 callsubr
            -34 -1 -24 hvcurveto
            -462.00999450683594 hlineto
            return
          </CharString>
          <CharString index="422">
            -38 41 callgsubr
            hstem
            254 callsubr
            488 230 vstem
            return
          </CharString>
          <CharString index="423">
            206 callgsubr
            75 vhcurveto
            return
          </CharString>
          <CharString index="424">
            hstemhm
            136 callsubr
            return
          </CharString>
          <CharString index="425">
            hlineto
            167 -79 callgsubr
            return
          </CharString>
          <CharString index="426">
            -111 226 callgsubr
            return
          </CharString>
          <CharString index="427">
            -18 -82 callgsubr
            return
          </CharString>
          <CharString index="428">
            -68 callsubr
            hvcurveto
            return
          </CharString>
          <CharString index="429">
            rlineto
            -58 callgsubr
            return
          </CharString>
          <CharString index="430">
            -30 -2 callgsubr
            return
          </CharString>
          <CharString index="431">
            -189 -255 189 return
          </CharString>
          <CharString index="432">
            rlineto
            91 callsubr
            return
          </CharString>
          <CharString index="433">
            28.020004272460938 return
          </CharString>
          <CharString index="434">
            -152.99000549316406 return
          </CharString>
          <CharString index="435">
            207.99000549316406 return
          </CharString>
          <CharString index="436">
            66.00999450683594 return
          </CharString>
          <CharString index="437">
            -55.99000549316406 return
          </CharString>
          <CharString index="438">
            34.02000427246094 return
          </CharString>
          <CharString index="439">
            -108.02000427246094 return
          </CharString>
          <CharString index="440">
            -8.009994506835938 return
          </CharString>
          <CharString index="441">
            -162 -17 rlineto
            return
          </CharString>
          <CharString index="442">
            -75 callgsubr
            -215 hhcurveto
            -1 hlineto
            -174 456 callsubr
            -86 -165 -3.0200042724609375 hvcurveto
            return
          </CharString>
          <CharString index="443">
            290 callsubr
            386.00999450683594 104 callsubr
            -154.99000549316406 256 callgsubr
            return
          </CharString>
          <CharString index="444">
            278.02000427246094 -84.99000549316406 59 -264.00999450683594 324 callsubr
            -91 -61 rlineto
            return
          </CharString>
          <CharString index="445">
            0 145 callsubr
            254.00999450683594 343 callgsubr
            506 107 hstem
            209 callgsubr
            return
          </CharString>
          <CharString index="446">
            -332 -23 342 callsubr
            413.510009765625 135.49000549316406 404.99998474121094 117 return
          </CharString>
          <CharString index="447">
            159 callsubr
            hstem
            return
          </CharString>
          <CharString index="448">
            311.00999450683594 return
          </CharString>
          <CharString index="449">
            122.97999572753906 return
          </CharString>
          <CharString index="450">
            196.99000549316406 return
          </CharString>
          <CharString index="451">
            282.00999450683594 return
          </CharString>
          <CharString index="452">
            247.99000549316406 return
          </CharString>
          <CharString index="453">
            -12.979995727539062 return
          </CharString>
          <CharString index="454">
            96.99000549316406 return
          </CharString>
          <CharString index="455">
            -378 -280 135 759.9900054931641 274 callsubr
            738.9999847412109 134 hstemhm
            return
          </CharString>
          <CharString index="456">
            173 -93 112 -237 121 callsubr
            293 callgsubr
            -34 469 callsubr
            -31 return
          </CharString>
          <CharString index="457">
            103 callgsubr
            98 callsubr
            hlineto
            257 278.02000427246094 return
          </CharString>
          <CharString index="458">
            161 -96 callsubr
            return
          </CharString>
          <CharString index="459">
            185 callgsubr
            endchar
          </CharString>
          <CharString index="460">
            124 callsubr
            vstem
            return
          </CharString>
          <CharString index="461">
            280 220 280 return
          </CharString>
          <CharString index="462">
            45 273 callsubr
            hvcurveto
            292 callsubr
            hlineto
            -1 -11 -64 callgsubr
            -18 -11 vvcurveto
            return
          </CharString>
          <CharString index="463">
            -6 callsubr
            221 callgsubr
            11 -1 22 return
          </CharString>
          <CharString index="464">
            197 callsubr
            85 -59 return
          </CharString>
          <CharString index="465">
            126.97000122070312 246 return
          </CharString>
          <CharString index="466">
            -91.02000427246094 return
          </CharString>
          <CharString index="467">
            4.0099945068359375 return
          </CharString>
          <CharString index="468">
            253.99000549316406 return
          </CharString>
          <CharString index="469">
            -79.00999450683594 return
          </CharString>
          <CharString index="470">
            -176.99000549316406 return
          </CharString>
          <CharString index="471">
            -341.02000427246094 return
          </CharString>
          <CharString index="472">
            268.97999572753906 return
          </CharString>
          <CharString index="473">
            38.99000549316406 return
          </CharString>
          <CharString index="474">
            -121.97000122070312 239 267 181 359 callgsubr
            vhcurveto
            181 vlineto
            return
          </CharString>
          <CharString index="475">
            141 356 callsubr
            -1 192 callsubr
            vhcurveto
            return
          </CharString>
          <CharString index="476">
            107 hstemhm
            539.9900054931641 128 callgsubr
            40.99998474121094 464.99000549316406 return
          </CharString>
          <CharString index="477">
            334 callsubr
            endchar
          </CharString>
          <CharString index="478">
            10 callgsubr
            111 callgsubr
            233 529 callsubr
            248 vstem
            return
          </CharString>
          <CharString index="479">
            -23 callgsubr
            hstem
            67 callsubr
            vstem
            return
          </CharString>
          <CharString index="480">
            rmoveto
            -22 -241 rlineto
            -29 -11 callgsubr
            157 -46.97999572753906 216 hhcurveto
            return
          </CharString>
          <CharString index="481">
            1718.990005493164 rmoveto
            94.99000549316406 -82 return
          </CharString>
          <CharString index="482">
            hlineto
            -5 0 87 callsubr
            -2 -12 vhcurveto
            -59 return
          </CharString>
          <CharString index="483">
            252 -231.989990234375 276.99000549316406 return
          </CharString>
          <CharString index="484">
            169 239 -698 151 hhcurveto
            return
          </CharString>
          <CharString index="485">
            106 -75 callgsubr
            return
          </CharString>
          <CharString index="486">
            -15 callgsubr
            -1 return
          </CharString>
          <CharString index="487">
            156.99000549316406 hstemhm
            return
          </CharString>
          <CharString index="488">
            241.99000549316406 return
          </CharString>
          <CharString index="489">
            8.009994506835938 return
          </CharString>
          <CharString index="490">
            -98.02000427246094 return
          </CharString>
          <CharString index="491">
            327.99000549316406 return
          </CharString>
          <CharString index="492">
            356.99000549316406 return
          </CharString>
          <CharString index="493">
            202.99000549316406 return
          </CharString>
          <CharString index="494">
            -12.990005493164062 return
          </CharString>
          <CharString index="495">
            190.99000549316406 return
          </CharString>
          <CharString index="496">
            rlineto
            -838 vlineto
            return
          </CharString>
          <CharString index="497">
            8 callsubr
            155.97999572753906 -141.989990234375 248.99000549316406 return
          </CharString>
          <CharString index="498">
            hlineto
            2 callsubr
            -61 callsubr
            232 callsubr
            return
          </CharString>
          <CharString index="499">
            497 callgsubr
            251.99000549316406 256 return
          </CharString>
          <CharString index="500">
            342 callsubr
            614.010009765625 378 callgsubr
            return
          </CharString>
          <CharString index="501">
            -12 185.99000549316406 -173.99000549316406 return
          </CharString>
          <CharString index="502">
            hstemhm
            201 callgsubr
            124 callsubr
            return
          </CharString>
          <CharString index="503">
            -97 callgsubr
            60 callsubr
            return
          </CharString>
          <CharString index="504">
            408.97999572753906 192 return
          </CharString>
          <CharString index="505">
            307.02000427246094 return
          </CharString>
          <CharString index="506">
            -153.99000549316406 return
          </CharString>
          <CharString index="507">
            1489 rmoveto
            -77 return
          </CharString>
          <CharString index="508">
            -78.00999450683594 return
          </CharString>
          <CharString index="509">
            -91.00999450683594 return
          </CharString>
          <CharString index="510">
            -386.99000549316406 return
          </CharString>
          <CharString index="511">
            285.97999572753906 return
          </CharString>
          <CharString index="512">
            304.99000549316406 return
          </CharString>
          <CharString index="513">
            305.00999450683594 return
          </CharString>
          <CharString index="514">
            vlineto
            -168 -23 501 callgsubr
            670 145 callgsubr
            vlineto
            return
          </CharString>
          <CharString index="515">
            551 438 callgsubr
            return
          </CharString>
          <CharString index="516">
            -42 119 callgsubr
            return
          </CharString>
          <CharString index="517">
            hstemhm
            61 callgsubr
            252 return
          </CharString>
          <CharString index="518">
            -60 callsubr
            vhcurveto
            return
          </CharString>
          <CharString index="519">
            -23 -45 callgsubr
            return
          </CharString>
          <CharString index="520">
            19.009994506835938 rlineto
            return
          </CharString>
          <CharString index="521">
            hstem
            288 callsubr
            return
          </CharString>
          <CharString index="522">
            -29 callsubr
            -57 callsubr
            return
          </CharString>
          <CharString index="523">
            -540 -281 137 1655.990005493164 9 callgsubr
            hstem
            return
          </CharString>
          <CharString index="524">
            311.00999450683594 449 callgsubr
            -152 -127 rlineto
            return
          </CharString>
          <CharString index="525">
            vlineto
            140 29 rlineto
            107 -528.0200042724609 -107 vlineto
            165 -28 rlineto
            return
          </CharString>
          <CharString index="526">
            183 callgsubr
            -30 callgsubr
            return
          </CharString>
          <CharString index="527">
            -1380 52 callsubr
            return
          </CharString>
          <CharString index="528">
            213 callsubr
            431 callgsubr
            -41 return
          </CharString>
          <CharString index="529">
            -114.02000427246094 return
          </CharString>
          <CharString index="530">
            -99.97999572753906 return
          </CharString>
          <CharString index="531">
            81.97999572753906 return
          </CharString>
          <CharString index="532">
            32.99000549316406 return
          </CharString>
          <CharString index="533">
            -73.00999450683594 return
          </CharString>
          <CharString index="534">
            -149.02000427246094 return
          </CharString>
          <CharString index="535">
            47.97999572753906 return
          </CharString>
          <CharString index="536">
            64.97999572753906 return
          </CharString>
          <CharString index="537">
            69.02000427246094 return
          </CharString>
          <CharString index="538">
            86.02000427246094 return
          </CharString>
          <CharString index="539">
            -329.99000549316406 return
          </CharString>
          <CharString index="540">
            -330.02000427246094 return
          </CharString>
          <CharString index="541">
            82.99000549316406 return
          </CharString>
          <CharString index="542">
            -86 hvcurveto
            -1 hlineto
            return
          </CharString>
          <CharString index="543">
            -325 -215 484 callgsubr
            -315.97999572753906 -286 return
          </CharString>
          <CharString index="544">
            hlineto
            105 110 callgsubr
            -46 69 return
          </CharString>
          <CharString index="545">
            77 75 callsubr
            228 callgsubr
            192 callgsubr
            return
          </CharString>
          <CharString index="546">
            1145.990005493164 646.9799957275391 hstem
            307 callgsubr
            return
          </CharString>
          <CharString index="547">
            109 callsubr
            rlineto
            hintmask 10011100
            return
          </CharString>
          <CharString index="548">
            319 callsubr
            -1251 vlineto
            return
          </CharString>
          <CharString index="549">
            246 callsubr
            82 270 callsubr
            return
          </CharString>
          <CharString index="550">
            280 187.989990234375 281 return
          </CharString>
          <CharString index="551">
            vstem
            128 callgsubr
            697 rmoveto
            return
          </CharString>
          <CharString index="552">
            112 202 callgsubr
            -10 hvcurveto
            return
          </CharString>
          <CharString index="553">
            123 438.010009765625 123 return
          </CharString>
          <CharString index="554">
            hhcurveto
            110 callsubr
            return
          </CharString>
          <CharString index="555">
            192 callgsubr
            -45 64 return
          </CharString>
          <CharString index="556">
            173 callsubr
            -83 60 return
          </CharString>
          <CharString index="557">
            hlineto
            82 277 callgsubr
            return
          </CharString>
          <CharString index="558">
            rlineto
            202 callsubr
            return
          </CharString>
          <CharString index="559">
            hstemhm
            3 callsubr
            return
          </CharString>
          <CharString index="560">
            hstem
            93 callgsubr
            return
          </CharString>
          <CharString index="561">
            91 callgsubr
            hvcurveto
            return
          </CharString>
          <CharString index="562">
            hvcurveto
            179 callgsubr
            return
          </CharString>
          <CharString index="563">
            -166.99000549316406 return
          </CharString>
          <CharString index="564">
            -47.99000549316406 return
          </CharString>
          <CharString index="565">
            12 0 10 5 vvcurveto
            return
          </CharString>
          <CharString index="566">
            306.99000549316406 return
          </CharString>
          <CharString index="567">
            220.99000549316406 return
          </CharString>
          <CharString index="568">
            99.99000549316406 return
          </CharString>
          <CharString index="569">
            87.99000549316406 return
          </CharString>
          <CharString index="570">
            75.97999572753906 return
          </CharString>
          <CharString index="571">
            567.9900054931641 return
          </CharString>
          <CharString index="572">
            33.02000427246094 return
          </CharString>
          <CharString index="573">
            17.020004272460938 return
          </CharString>
          <CharString index="574">
            -700.9900054931641 return
          </CharString>
          <CharString index="575">
            -328.99000549316406 return
          </CharString>
          <CharString index="576">
            -15.020004272460938 return
          </CharString>
          <CharString index="577">
            151 217 11 return
          </CharString>
          <CharString index="578">
            -105.99000549316406 return
          </CharString>
          <CharString index="579">
            -83.00999450683594 return
          </CharString>
          <CharString index="580">
            49 -85 callsubr
            return
          </CharString>
          <CharString index="581">
            298 rlineto
            -183 hlineto
            -271 170 callsubr
            return
          </CharString>
          <CharString index="582">
            -29 rlineto
            304 callgsubr
            vlineto
            -152 -17 rlineto
            endchar
          </CharString>
          <CharString index="583">
            139 callsubr
            86 callsubr
            return
          </CharString>
          <CharString index="584">
            -45 64 121 callsubr
            334 callgsubr
            -82 return
          </CharString>
          <CharString index="585">
            -732 1333.979995727539 480.00999450683594 hstem
            return
          </CharString>
          <CharString index="586">
            vhcurveto
            -24 vlineto
            242 callsubr
            return
          </CharString>
          <CharString index="587">
            -531 -363 1962 hstem
            return
          </CharString>
          <CharString index="588">
            64 122 hvcurveto
            1 hlineto
            123 return
          </CharString>
          <CharString index="589">
            868.9900054931641 return
          </CharString>
          <CharString index="590">
            -197.02000427246094 return
          </CharString>
          <CharString index="591">
            -270.99000549316406 return
          </CharString>
          <CharString index="592">
            620.9900054931641 return
          </CharString>
          <CharString index="593">
            -289.02000427246094 return
          </CharString>
          <CharString index="594">
            176.99000549316406 return
          </CharString>
          <CharString index="595">
            254.99000549316406 return
          </CharString>
          <CharString index="596">
            768.9799957275391 return
          </CharString>
          <CharString index="597">
            237.00999450683594 return
          </CharString>
          <CharString index="598">
            244.97999572753906 return
          </CharString>
          <CharString index="599">
            138.99000549316406 return
          </CharString>
          <CharString index="600">
            -204.99000549316406 return
          </CharString>
          <CharString index="601">
            111 518 callsubr
            80 callgsubr
            return
          </CharString>
          <CharString index="602">
            641 0 117 891.9799957275391 154 return
          </CharString>
          <CharString index="603">
            hvcurveto
            -18 callgsubr
            383 callsubr
            return
          </CharString>
          <CharString index="604">
            1448 rmoveto
            97 198 callsubr
            rlineto
            34 return
          </CharString>
          <CharString index="605">
            vlineto
            486 callgsubr
            return
          </CharString>
          <CharString index="606">
            vlineto
            174.02000427246094 return
          </CharString>
          <CharString index="607">
            hvcurveto
            -567.0099945068359 return
          </CharString>
          <CharString index="608">
            459 callsubr
            vstem
            return
          </CharString>
          <CharString index="609">
            87 callgsubr
            hlineto
            return
          </CharString>
          <CharString index="610">
            hlineto
            -159 -139 rlineto
            return
          </CharString>
          <CharString index="611">
            200 callgsubr
            rlineto
            return
          </CharString>
          <CharString index="612">
            1004.9900054931641 rmoveto
            return
          </CharString>
          <CharString index="613">
            1675 rmoveto
            return
          </CharString>
          <CharString index="614">
            171.010009765625 244 callgsubr
            hstemhm
            return
          </CharString>
          <CharString index="615">
            hstem
            201 callgsubr
            124 callsubr
            return
          </CharString>
          <CharString index="616">
            hstem
            -43 callsubr
            259.99000549316406 return
          </CharString>
          <CharString index="617">
            -10.009994506835938 hvcurveto
            827 hlineto
            endchar
          </CharString>
          <CharString index="618">
            -145 143 -255 hhcurveto
            return
          </CharString>
          <CharString index="619">
            -274 -397.99000549316406 return
          </CharString>
          <CharString index="620">
            67 455 callgsubr
            return
          </CharString>
          <CharString index="621">
            171 244 callgsubr
            return
          </CharString>
          <CharString index="622">
            536.9900054931641 return
          </CharString>
          <CharString index="623">
            110.97999572753906 return
          </CharString>
          <CharString index="624">
            565.9900054931641 return
          </CharString>
          <CharString index="625">
            138.989990234375 return
          </CharString>
          <CharString index="626">
            -252.99000549316406 return
          </CharString>
          <CharString index="627">
            117.50999450683594 return
          </CharString>
          <CharString index="628">
            93.99000549316406 return
          </CharString>
          <CharString index="629">
            118.5 return
          </CharString>
          <CharString index="630">
            -177.99000549316406 return
          </CharString>
          <CharString index="631">
            -228.99000549316406 return
          </CharString>
          <CharString index="632">
            591.9900054931641 return
          </CharString>
          <CharString index="633">
            -456.99000549316406 return
          </CharString>
          <CharString index="634">
            -111.97999572753906 return
          </CharString>
          <CharString index="635">
            -235.99000549316406 return
          </CharString>
          <CharString index="636">
            526.989990234375 return
          </CharString>
          <CharString index="637">
            68.02000427246094 435 callsubr
            -99 return
          </CharString>
          <CharString index="638">
            63 63 331 callsubr
            vhcurveto
            endchar
          </CharString>
          <CharString index="639">
            vhcurveto
            1 hlineto
            104 return
          </CharString>
        <CharString name=".notdef">
          357 0 251.99000549316406 906.989990234375 257 hstem
          487 callsubr
          262 893.989990234375 260.00999450683594 vstem
          487 callsubr
          1415.990005493164 rmoveto
          -1415.990005493164 1416.009994506836 1415.990005493164 -1416.009994506836 vlineto
          382 -1164 rmoveto
          174 callgsubr
          135 343 317.99000549316406 -344 338 114 116 333 -351.99000549316406 328 350.99000549316406 -45 callgsubr
          -116 -348 -333.99000549316406 348 -343 144 callsubr
          -113 -337 353.00999450683594 -324.02000427246094 -353.00999450683594 rlineto
          endchar
        </CharString>
        <CharString name="A">
          12 callsubr
          -33.50999450683594 492.5 hintmask 00000000
          hintmask 11110000
          -34 -104 callsubr
          -107 callsubr
        </CharString>
        <CharString name="AE">
          14 callsubr
          643.9900054931641 106.99000549316406 -81 callsubr
        </CharString>
        <CharString name="AEacute">
          14 callsubr
          826 103 callsubr
          88.99000549316406 28 237.02000427246094 123 62 callsubr
          101 -153 127 397 callgsubr
          -331 -311.00999450683594 rlineto
          -182 -1594 -81 callsubr
        </CharString>
        <CharString name="Aacute">
          -13 callgsubr
          464 callsubr
          103 callsubr
          89 278 callgsubr
          78 101 -153 -42 callgsubr
          hintmask 11101000
          -601.9900054931641 -1592 -107 callsubr
        </CharString>
        <CharString name="Abreve">
          4 0 -70 callsubr
          108.99998474121094 169 317 callsubr
          -89 123 437.97999572753906 123 hintmask 11010110
          369.99000549316406 269 callsubr
          -41 callgsubr
          -139 225.02000427246094 215.97999572753906 123 101 callgsubr
          -2 -12 vhcurveto
          -59 -6.9799957275390625 -43 267 callgsubr
          -46 100 59 326 callgsubr
          325 callgsubr
          458 callsubr
          -121 hlineto
          -2 85 callsubr
          0 106 callgsubr
          106 callgsubr
          vvcurveto
          hintmask 11111010
          -403.99000549316406 -1846.990005493164 -107 callsubr
        </CharString>
        <CharString name="Acircumflex">
          -13 callgsubr
          349 1712.990005493164 rmoveto
          85 32 callgsubr
          -271 170 callsubr
          hintmask 11101000
          -382.99000549316406 -1604 -107 callsubr
        </CharString>
        <CharString name="Adieresis">
          -74 callgsubr
        </CharString>
        <CharString name="Agrave">
          -13 callgsubr
          395 28 callgsubr
          -1 hlineto
          -151.97999572753906 -127 rlineto
          hintmask 11101000
          -428.99000549316406 -1776 -107 callsubr
        </CharString>
        <CharString name="Amacron">
          4 0 -70 callsubr
          211.99998474121094 158 317 callsubr
          -27.010009765625 465 callgsubr
          hintmask 00000000
          hintmask 11010100
          431.97999572753906 50 callsubr
          hintmask 11111000
          -465.97999572753906 -1794.990005493164 -107 callsubr
        </CharString>
        <CharString name="Aogonek">
          -3 295 callsubr
          -70 callsubr
          hstem
          136 callsubr
          400 256 callgsubr
          vstem
          -34 -104 callsubr
          rmoveto
          1 -102 callsubr
          rlineto
          491.99000549316406 -104 callsubr
          hlineto
          -171 24 91 291.97999572753906 rlineto
          588 hlineto
          95.00999450683594 -291.97999572753906 -163 -49 callgsubr
          238 vlineto
          -150 -60 -128 125 callsubr
          146 callsubr
          vvcurveto
          125 callsubr
          127 -54 134 217 callsubr
          97 -68 callsubr
          43 57 vhcurveto
          110 vlineto
          96 callsubr
          -46 -47 346 callsubr
          -46 callsubr
          hhcurveto
          472 callsubr
          146 callgsubr
          425 callsubr
          87 77 95.00999450683594 112 130 61 callsubr
          hvcurveto
          157 -104 callsubr
          hlineto
          -127.02000427246094 24 -496.99000549316406 1401 rlineto
          -238 hlineto
          -493 -1401 -126.99000549316406 -24 rlineto
          452.9700012207031 443 rmoveto
          205 654.9900054931641 44.02000427246094 170 43.99000549316406 -168 214 -657 rlineto
          -507 hlineto
          endchar
        </CharString>
        <CharString name="Aring">
          4 171 callsubr
          315.989990234375 127.00999450683594 1362.000015258789 112 callsubr
          317 callsubr
          -78.010009765625 274 callsubr
          346.02000427246094 159 hintmask 11101100
          1320.979995727539 133 rmoveto
          -492 1385.990005493164 125.00999450683594 31 91 82 2 125.00999450683594 rlinecurve
          149 -56 callgsubr
          126 callsubr
          335 callsubr
          -2 527 callsubr
          242 callsubr
          -96.02000427246094 140 -35 rrcurveto
          hintmask 11110100
          -488 -1386.990005493164 -126.99000549316406 -24 1 -102 callsubr
          rlineto
          491.99000549316406 -104 callsubr
          hlineto
          -171 24 91 291.97999572753906 rlineto
          588 hlineto
          95.00999450683594 -291.97999572753906 -163 -49 callgsubr
          549 -97 callgsubr
          hintmask 11101100
          -127.02000427246094 24 rlineto
          -604 1781 rmoveto
          1 hlineto
          123 47 12 callgsubr
          138 callgsubr
          -93 -47 -53 487 callgsubr
          hvcurveto
          -1 hlineto
          -122.99000549316406 178 callgsubr
          77 424 callsubr
          95.00999450683594 53 56 122 hvcurveto
          -298 -1362 rmoveto
          205 654.9900054931641 44.02000427246094 170 43.99000549316406 -168 214 -657 rlineto
          -507 hlineto
          endchar
        </CharString>
        <CharString name="Atilde">
          4 0 -70 callsubr
          149.99998474121094 267 callsubr
          423 callgsubr
          1481.990005493164 -1481.509994506836 492.5 hintmask 11001100
          515 callsubr
          189 callsubr
          hintmask 11010100
          141 85 84 callsubr
          -32 -83 -93 -114 124 callgsubr
          -11 callsubr
          456 callsubr
          hhcurveto
          hintmask 11001100
          -153 126 callsubr
          250 callsubr
          91 hhcurveto
          hintmask 11101010
          -570.9799957275391 -1741.990005493164 -107 callsubr
        </CharString>
        <CharString name="B">
          -72 callgsubr
        </CharString>
        <CharString name="C">
          -78 -23 26 callsubr
          vstem
          -43 callsubr
          762 rmoveto
          -492.00999450683594 267 -292.97999572753906 481.02000427246094 221.99000549316406 72 71.97999572753906 7 106 vhcurveto
          -100 callgsubr
          hvcurveto
          endchar
        </CharString>
        <CharString name="CR">
          -1413 endchar
        </CharString>
        <CharString name="Cacute">
          -78 -23 26 callsubr
          vstem
          639 -3 callgsubr
          -573.0099945068359 -938.9900054931641 rmoveto
          -492.00999450683594 267 -292.97999572753906 481.02000427246094 221.99000549316406 72 71.97999572753906 7 106 vhcurveto
          -100 callgsubr
          hvcurveto
          endchar
        </CharString>
        <CharString name="Ccaron">
          443 callgsubr
          137.99998474121094 148 168 callgsubr
          vstem
          438.99000549316406 11 callgsubr
          -255.02000427246094 189 -91 -61 rlineto
          -373 -1189.990005493164 rmoveto
          -492.00999450683594 267 -292.97999572753906 481.02000427246094 221.99000549316406 72 71.97999572753906 7 106 vhcurveto
          -100 callgsubr
          hvcurveto
          endchar
        </CharString>
        <CharString name="Ccedilla">
          -71 callgsubr
        </CharString>
        <CharString name="Ccircumflex">
          -78 -23 26 callsubr
          vstem
          419.97999572753906 197 callsubr
          85.02000427246094 32 callgsubr
          -271.02000427246094 170 callsubr
          -354 -950.9900054931641 rmoveto
          -492.00999450683594 267 -292.97999572753906 481.02000427246094 221.99000549316406 72 71.97999572753906 7 106 vhcurveto
          -100 callgsubr
          hvcurveto
          endchar
        </CharString>
        <CharString name="Cdotaccent">
          443 callgsubr
          155.00999450683594 292.97999572753906 168 callgsubr
          303.97999572753906 286 vstem
          640.9799957275391 41 callsubr
          268 callgsubr
          50 40 callsubr
          365 callgsubr
          1 callgsubr
          -575 -1065.990005493164 rmoveto
          -492.00999450683594 267 -292.97999572753906 481.02000427246094 221.99000549316406 72 71.97999572753906 7 106 vhcurveto
          -100 callgsubr
          hvcurveto
          endchar
        </CharString>
        <CharString name="D">
          148 -6 callgsubr
          -41 callgsubr
          1314.990005493164 372 callsubr
          94.99000549316406 108.99000549316406 rmoveto
          -99 callsubr
          -1251.990005493164 vlineto
          -169 -24 rlineto
          403 -58 callgsubr
          125 callgsubr
        </CharString>
        <CharString name="Dcaron">
          148 -6 callgsubr
          -41 callgsubr
          1314.990005493164 -23 callgsubr
          138.99998474121094 148 hstem
          67 callsubr
          vstem
          457.99000549316406 203 callgsubr
          -363 -1843 rmoveto
          -99 callsubr
          -1251.990005493164 vlineto
          -169 -24 rlineto
          403 -58 callgsubr
          125 callgsubr
        </CharString>
        <CharString name="Dcroat">
          148 -6 callgsubr
          -41 callgsubr
          611.9799957275391 129 574.010009765625 372 callsubr
          -75 callgsubr
          844.9799957275391 rmoveto
          -129 156 -582.9900054931641 vlineto
          -169 -24 rlineto
          -99 callsubr
          -540 -156 vlineto
          390 hmoveto
          561.0099945068359 -83 callsubr
          593 338 129 -338 vlineto
          endchar
        </CharString>
        <CharString name="E">
          -73 callsubr
          65 callsubr
          95.99000549316406 108.99000549316406 -73 callgsubr
          -103 callgsubr
          313 callgsubr
        </CharString>
        <CharString name="Eacute">
          -73 callsubr
          65 callsubr
          548.9900054931641 103 callsubr
          89 278 callgsubr
          78 101 -153 -42 callgsubr
          -453 -1592 -73 callgsubr
          -103 callgsubr
          313 callgsubr
        </CharString>
        <CharString name="Ebreve">
          -73 callsubr
          120.99000549316406 169 hstemhm
          93 callgsubr
          235 -144.989990234375 123 377 129 -68.010009765625 123 hintmask 00000000
          hintmask 11110101
          354 269 callsubr
          -41 callgsubr
          -139 225 31 callsubr
          -165.99000549316406 -46.02000427246094 100 59 -9 325 callgsubr
          458 callsubr
          -121.02000427246094 hlineto
          -35 callsubr
          85 callsubr
          0 106 callgsubr
          106 callgsubr
          vvcurveto
          -258.00999450683594 -1846.990005493164 -73 callgsubr
          rlineto
          hintmask 11111010
          -103 callgsubr
          hintmask 11110101
          313 callgsubr
        </CharString>
        <CharString name="Ecaron">
          -73 callsubr
          -47 callsubr
          148 65 callsubr
          352.99000549316406 203 callgsubr
          -257 -1843 -73 callgsubr
          -103 callgsubr
          313 callgsubr
        </CharString>
        <CharString name="Ecircumflex">
          -73 callsubr
          65 callsubr
          333.99000549316406 197 callsubr
          -30 callsubr
          -59 278.02000427246094 44 callgsubr
          -271.00999450683594 170 callsubr
          -238 -1604 -73 callgsubr
          -103 callgsubr
          313 callgsubr
        </CharString>
        <CharString name="Edieresis">
          -73 callsubr
          165.00001525878906 171 callgsubr
          93 callgsubr
          235 -191.989990234375 354 callsubr
          -233 129 532 callgsubr
          307 104 callgsubr
          -62 callgsubr
          -60.99000549316406 75 vhcurveto
          1 437 callsubr
          -86.02000427246094 -20 callgsubr
          -87.99000549316406 hvcurveto
          -1 hlineto
          121 callsubr
          -46 callsubr
          -50 callsubr
          -711 -1714 -73 callgsubr
          rlineto
          hintmask 11101001
          -103 callgsubr
          hintmask 11110110
          313 callgsubr
        </CharString>
        <CharString name="Edotaccent">
          -73 callsubr
          171.00001525878906 244 callgsubr
          hstemhm
          93 callgsubr
          235 55 286 14.010009765625 129 hintmask 00000000
          hintmask 11111100
          553.9799957275391 56 callsubr
          -46 callsubr
          -43 callsubr
          -88 hvcurveto
          -1 hlineto
          -98 365 callgsubr
          1 callgsubr
          -458 -1718.990005493164 -73 callgsubr
          rlineto
          hintmask 11101010
          -103 callgsubr
          hintmask 11111100
          313 callgsubr
        </CharString>
        <CharString name="Egrave">
          -73 callsubr
          65 callsubr
          355.97999572753906 28 callgsubr
          -1 hlineto
          -152 -127 rlineto
          -260 -1776 -73 callgsubr
          -103 callgsubr
          313 callgsubr
        </CharString>
        <CharString name="Emacron">
          -73 callsubr
          239 callsubr
          158 hstemhm
          93 callgsubr
          235 -83 465 callgsubr
          -131.97999572753906 129 hintmask 00000000
          hintmask 11110100
          415.99000549316406 50 callsubr
          -320 -1794.990005493164 -73 callgsubr
          rlineto
          hintmask 11111010
          -103 callgsubr
          hintmask 11110100
          313 callgsubr
        </CharString>
        <CharString name="Eng">
          200 0 -45 callgsubr
          1271 126 callgsubr
          -108.00001525878906 79 callsubr
          273 callgsubr
          152 856 123 callsubr
          hintmask 10111000
          98.97999572753906 508 callgsubr
          507 145 callgsubr
          vlineto
          240 callgsubr
          24 rlineto
          1149.009994506836 vlineto
          140 -272.02000427246094 636.9900054931641 -983 -13 91 callsubr
          -18 -36 2 callgsubr
          -30 rlinecurve
          146 callgsubr
          400 callgsubr
          -104 -65 -123 -32 54 -88 rcurveline
          141 303 callgsubr
          115 47 115 127 rrcurveto
          76 87 277 callgsubr
          115.97999572753906 373 vvcurveto
          985.0099945068359 vlineto
          168 -68 callsubr
          rlineto
          79 callsubr
          -493.02000427246094 -7 callsubr
          499 callsubr
          185 callgsubr
          -1123 vlineto
          -144.02000427246094 274 -629.9900054931641 983 rlineto
          -401.02000427246094 -104 hlineto
          hintmask 11011000
          167.02000427246094 -28 rlineto
          -1259 vlineto
          hintmask 10111000
          476 callgsubr
        </CharString>
        <CharString name="Eogonek">
          -74 295 callsubr
          9 callgsubr
          584.5 126.52999877929688 555.5 120.47999572753906 hstemhm
          93 callgsubr
          235 231 328 callsubr
          -83.97999572753906 129 hintmask 01111010
          150 callsubr
          921.0099945068359 vlineto
          hintmask 11111100
          -162 199 callgsubr
          255 callsubr
          -140 146 callsubr
          vvcurveto
          125 callsubr
          125.00999450683594 -54 435 callgsubr
          217 callsubr
          -22 callsubr
          -68 callsubr
          43 341 callgsubr
          vhcurveto
          110 vlineto
          96 callsubr
          124 callgsubr
          457 callsubr
          346 callsubr
          -48 hhcurveto
          -83 -65 35 86 327 callgsubr
          190 callsubr
          139.02000427246094 134 123 callgsubr
          hvcurveto
          105 callsubr
          hlineto
          59 358.99000549316406 -128 9 callsubr
          -113 -251 -549.9900054931641 -22 rlineto
          598 vlineto
          hintmask 01111010
          326 -5 29 -175.99000549316406 rlineto
          129 473.99000549316406 -129 hlineto
          95 callsubr
          -325 -6 415 callgsubr
          478.99000549316406 -13 62 -190.02000427246094 rlineto
          129 hlineto
          -28.020004272460938 317.00999450683594 rlineto
          -1042 -111 hlineto
          -57 callsubr
          313 callgsubr
        </CharString>
        <CharString name="Eth">
          148 -6 callgsubr
          -41 callgsubr
          630.9799957275391 116 568.010009765625 372 callsubr
          308 callgsubr
          850.9799957275391 rmoveto
          -116 152 -601.9900054931641 vlineto
          -169 -24 rlineto
          -99 callsubr
          -534 -152 vlineto
          386.00999450683594 hmoveto
          555.0099945068359 -83 callsubr
          612 340.99000549316406 116 -340.99000549316406 vlineto
          endchar
        </CharString>
        <CharString name="Euro">
          145 -28 516 callsubr
          453 122 247.010009765625 122 400.989990234375 122 hstem
          257 callgsubr
          249.00999450683594 vstem
          258 callgsubr
          657.9799957275391 rmoveto
          -122 217 vlineto
          -343.97999572753906 53 203 -220 346.99000549316406 hhcurveto
          262 112 5 callgsubr
          4 87 hvcurveto
          23 247 -117 23 275 callgsubr
          -158 rlineto
          -62 -69.02000427246094 -73.99000549316406 458 callgsubr
          -105 hhcurveto
          -251.99000549316406 427 callgsubr
          178.02000427246094 274.97999572753906 -36 hvcurveto
          513 122 -524 hlineto
          -35 callsubr
          36 0 37 39 vvcurveto
          47 -56 callgsubr
          45 122 callsubr
          43 vhcurveto
          549.9900054931641 122 -535 hlineto
          263 48 -20 callsubr
          138 209 hhcurveto
          112 106 -56 callsubr
          -44 40 hvcurveto
          45 -205.99000549316406 rlineto
          125.00999450683594 hlineto
          18 321.97999572753906 rlineto
          14 -83 96 callgsubr
          62 483 callsubr
          hhcurveto
          -333.99000549316406 -241 -191 -332 -87 hvcurveto
          -217.99000549316406 -122 177 callsubr
          hlineto
          153 callsubr
          -56 191 callgsubr
          -60 -62 vvcurveto
          -24 0 -23 1 -22.020004272460938 vhcurveto
          -204 hlineto
          endchar
        </CharString>
        <CharString name="F">
          368 callgsubr
          453 callsubr
          235 388 123 vstem
          98.97999572753906 -86 callgsubr
          704 -97 callgsubr
          54 callgsubr
          -165 -24 rlineto
          endchar
        </CharString>
        <CharString name="G">
          109 -31 callgsubr
          hstem
          152 callgsubr
          vstem
          87 738 -94 callsubr
        </CharString>
        <CharString name="Gbreve">
          114 -31 callgsubr
          104 169 hstemhm
          93 366 callgsubr
          134 446 callsubr
          -47 97 callgsubr
          hintmask 11111101
          496.99000549316406 269 callsubr
          120 -139 225 vhcurveto
          hintmask 11111110
          216 266 callsubr
          -2 -58 callgsubr
          hvcurveto
          172 callsubr
          hlineto
          -5 0 87 callsubr
          -35 callsubr
          -12 vhcurveto
          -59 -7 115 callgsubr
          -121 hlineto
          hintmask 11111101
          -2 85 callsubr
          0 106 callgsubr
          106 callgsubr
          vvcurveto
          -403.99000549316406 -1217.990005493164 -14 callsubr
        </CharString>
        <CharString name="Gcaron">
          109 -31 callgsubr
          137 148 hstem
          152 callgsubr
          vstem
          489.97999572753906 11 callgsubr
          -255 189 359 callsubr
          -61 rlineto
          -402.99000549316406 -1213.990005493164 -94 callsubr
        </CharString>
        <CharString name="Gcircumflex">
          109 -31 callgsubr
          hstem
          152 callgsubr
          vstem
          471 102 callgsubr
          -271 -300.00999450683594 rlineto
          -384 -974.9900054931641 -94 callsubr
        </CharString>
        <CharString name="Gcommaaccent">
          116 -31 callgsubr
          hstem
          491 callgsubr
          270 399 187 185 235 vstem
          491 callgsubr
          738 321 callgsubr
          269 255 callgsubr
          45 callsubr
          vhcurveto
          539.0099945068359 vlineto
          117 21 rlineto
          129 -597 -129 vlineto
          244.99000549316406 -23 rlineto
          -438 vlineto
          -58 -38 callsubr
          -118.00999450683594 -27 -113 hhcurveto
          -331 -148.99000549316406 338 357.99000549316406 418.02000427246094 205 221 callgsubr
          287.99000549316406 174 70 -41 -24 24 hvcurveto
          54 -237 rlineto
          -47 callsubr
          hlineto
          20.009994506835938 355 rlineto
          17 -71 -194.99000549316406 47 -214.02000427246094 hhcurveto
          -437.99000549316406 364 callsubr
          -295 -506 hvcurveto
          692 -1298 19 callgsubr
        </CharString>
        <CharString name="Gdotaccent">
          114 -31 callgsubr
          154.010009765625 451 callgsubr
          93 366 callgsubr
          335.010009765625 404 callsubr
          150.02000427246094 97 callgsubr
          vstem
          698 41 callsubr
          62 callsubr
          211 callgsubr
          -62 callgsubr
          -32 callgsubr
          -605 -1089.990005493164 -14 callsubr
        </CharString>
        <CharString name="Gtilde">
          109 -31 callgsubr
          145 267 callsubr
          152 callgsubr
          hintmask 11101110
          658.9799957275391 189 callsubr
          hintmask 11110110
          141 85 84 callsubr
          -32 -83 -93 -114 -45 479 callgsubr
          hintmask 11101110
          327 callsubr
          -107 250 callsubr
          257 callsubr
          hhcurveto
          -571.9900054931641 -1112.990005493164 -94 callsubr
        </CharString>
        <CharString name="H">
          287 171 callsubr
          605 157 callsubr
          112 callsubr
          -104 callsubr
          -69 callsubr
        </CharString>
        <CharString name="Hbar">
          286 171 callsubr
          502.989990234375 131 280.010009765625 308 callgsubr
          276.02000427246094 184 callsubr
          233 702.989990234375 234 vstem
          52 1134.979995727539 rmoveto
          -111.99000549316406 213 -890 vlineto
          -168 -49 callgsubr
          574 -97 callgsubr
          -173 24 rlineto
          478.99000549316406 703 492 callgsubr
          vlineto
          -162 -25 57 callgsubr
          557 -75 callgsubr
          vlineto
          -161 -68 callsubr
          rlineto
          889.0200042724609 217 111.99000549316406 -217 251 vlineto
          162 -79 callgsubr
          -559 -29 callsubr
          163 -64 callsubr
          -251 -703 251 413 callgsubr
          -79 callgsubr
          -566.9900054931641 -29 callsubr
          162 -90 callgsubr
          rlineto
          -250 -213 vlineto
          1148.990005493164 -391.99000549316406 rmoveto
          -703 280 703 -280 hlineto
          endchar
        </CharString>
        <CharString name="Hcircumflex">
          287 171 callsubr
          605 157 callsubr
          485.99000549316406 -13 callsubr
          -386.00999450683594 -1604 -69 callsubr
        </CharString>
        <CharString name="I">
          187 callsubr
          308 callgsubr
          108.99000549316406 -98 callgsubr
          endchar
        </CharString>
        <CharString name="I.uc">
          -37 callgsubr
        </CharString>
        <CharString name="IJ">
          194 -25 callsubr
          585.0099945068359 233 vstem
          308 callgsubr
          108.99000549316406 -98 callgsubr
          703 -385 rmoveto
          341 callgsubr
          -92 290 callgsubr
          303 callsubr
          211 -20 callsubr
          53 244 rlinecurve
          27 121 -54 callsubr
          408 callgsubr
          -602.0099945068359 -111 vlineto
          188 -90 callgsubr
          rlineto
          -900 vlineto
          -279 210 callsubr
          -103 177 callgsubr
          -60 callgsubr
          vhcurveto
          -45 -143 172 callsubr
          -103 -95 -25 rrcurveto
          endchar
        </CharString>
        <CharString name="IJ_acutecomb">
          194 -25 callsubr
          585.0099945068359 233 vstem
          221 1698 rmoveto
          80 457 callgsubr
          rlineto
          1 hlineto
          88.99000549316406 326 callsubr
          237.02000427246094 122.99000549316406 62 callsubr
          101 -153 127 397 callgsubr
          -331 -310.99000549316406 rlineto
          799.9900054931641 -2 rmoveto
          80 430 callgsubr
          rlineto
          1 hlineto
          89 278 callgsubr
          55 callgsubr
          90 callgsubr
          -153 127.02000427246094 rcurveline
          -1 hlineto
          -331 -311.00999450683594 rlineto
          -909 -1587 -98 callgsubr
          703 -385 rmoveto
          341 callgsubr
          -92 290 callgsubr
          303 callsubr
          211 -20 callsubr
          53 244 rlinecurve
          27 121 -54 callsubr
          408 callgsubr
          -602.0099945068359 -111 vlineto
          188 -90 callgsubr
          rlineto
          -900 vlineto
          -279 210 callsubr
          -103 177 callgsubr
          -60 callgsubr
          vhcurveto
          -45 -143 172 callsubr
          -103 -95 -25 rrcurveto
          endchar
        </CharString>
        <CharString name="Iacute">
          187 callsubr
          270.99000549316406 103 callsubr
          462 callgsubr
          278 callgsubr
          78 101 -153 -42 callgsubr
          -159 -1592 -98 callgsubr
          endchar
        </CharString>
        <CharString name="Ibreve">
          85 callgsubr
          120.989990234375 169 hstem
          -11 callgsubr
          123 99 -8 callsubr
          103.00999450683594 342 callsubr
          vstem
          -11 callgsubr
          269 callsubr
          -41 callgsubr
          -139 225.02000427246094 216 122.99000549316406 101 callgsubr
          -35 callsubr
          -12 vhcurveto
          -59 -7 115 callgsubr
          -121 hlineto
          -2 85 callsubr
          0 106 callgsubr
          106 callgsubr
          vvcurveto
          366 callsubr
          -1846.990005493164 -98 callgsubr
          endchar
        </CharString>
        <CharString name="Icircumflex">
          187 callsubr
          52 102 callgsubr
          -271 -300.00999450683594 rlineto
          200 callsubr
          -1604 -98 callgsubr
          endchar
        </CharString>
        <CharString name="Idieresis">
          -62 callsubr
        </CharString>
        <CharString name="Idotaccent">
          -37 callgsubr
        </CharString>
        <CharString name="Igrave">
          187 callsubr
          98 28 callgsubr
          -64 callgsubr
          hlineto
          -152 -127 322 callsubr
          -1776 -98 callgsubr
          endchar
        </CharString>
        <CharString name="Imacron">
          85 callgsubr
          223.989990234375 158 hstemhm
          9 callgsubr
          465 callgsubr
          -409.97999572753906 -8 callsubr
          hintmask 00000000
          hintmask 11110000
          9 callgsubr
          50 callsubr
          -23 -1794.990005493164 52 callsubr
          hintmask 11101000
          605 -42 callsubr
          hlineto
          -101 callsubr
          hintmask 11110000
          506 callgsubr
        </CharString>
        <CharString name="Iogonek">
          -586 295 callsubr
          132.99000549316406 1278 111 hstemhm
          -23 callgsubr
          207 -30 -8 callsubr
          hintmask 11101000
          308 callgsubr
          -86 callgsubr
          253 vlineto
          hintmask 11110000
          -129 199 callgsubr
          -118 -140 146 callsubr
          vvcurveto
          125 callsubr
          128 -54 134 84 -22 callsubr
          -68 callsubr
          43 58 vhcurveto
          110 vlineto
          96 callsubr
          -46 -47 346 callsubr
          457 callsubr
          hhcurveto
          -86.02000427246094 219 callsubr
          35 86 76 5 callgsubr
          112 112 61 callsubr
          hvcurveto
          hintmask 11101000
          522 callgsubr
          -42 callsubr
          hlineto
          -92 callsubr
          endchar
        </CharString>
        <CharString name="Itilde">
          85 callgsubr
          161.989990234375 267 callsubr
          68 callgsubr
          hintmask 11011000
          288 callsubr
          189 callsubr
          hintmask 11101000
          141 85 84 callsubr
          -32 -83 -93 -114 -45 -11 callsubr
          404 callgsubr
          hhcurveto
          hintmask 11011000
          327 callsubr
          -107 92 callsubr
          -89 172 callgsubr
          376 callgsubr
          257 callsubr
          hhcurveto
          -128 -1741.990005493164 -98 callgsubr
          endchar
        </CharString>
        <CharString name="J">
          264 callsubr
          -12 -276 -52 callsubr
        </CharString>
        <CharString name="Jcircumflex">
          264 callsubr
          35.97999572753906 197 callsubr
          85.02000427246094 32 callgsubr
          -271.02000427246094 170 callsubr
          493 callgsubr
          -1988.990005493164 -52 callsubr
        </CharString>
        <CharString name="K">
          76 0 -41 callgsubr
          1291 139 callsubr
          97 callgsubr
          412.49998474121094 509.5 vstem
          -29 callgsubr
          endchar
        </CharString>
        <CharString name="Kcommaaccent">
          76 0 -41 callgsubr
          1291 111 273 callgsubr
          97 callgsubr
          261.99998474121094 187 -36.5 509.5 hintmask 11101000
          -29 callgsubr
          hintmask 11110000
          -397 -560 19 callgsubr
        </CharString>
        <CharString name="L">
          -112 36 callsubr
          vstem
          98 108.99000549316406 74 callgsubr
        </CharString>
        <CharString name="Lacute">
          -112 36 callsubr
          vstem
          354 -3 callgsubr
          -256 -1592 74 callgsubr
        </CharString>
        <CharString name="Lcaron">
          -112 36 callsubr
          452.99998474121094 192 vstem
          926.9900054931641 112 callgsubr
          -828.9900054931641 -952 74 callgsubr
        </CharString>
        <CharString name="Lcommaaccent">
          -113 36 callsubr
          160.00999450683594 186.97999572753906 vstem
          98 108.99000549316406 -79 callsubr
          588 -669 rmoveto
          28 165 callsubr
          364 callgsubr
          68 callsubr
          286 callgsubr
          -50 callgsubr
        </CharString>
        <CharString name="Ldot">
          -100 379 callgsubr
          573 294.99000549316406 401.00999450683594 139 callsubr
          178 callsubr
          323.99998474121094 398 callsubr
          vstem
          98 108.99000549316406 -79 callsubr
          728.9900054931641 741.9900054931641 rmoveto
          -82.97999572753906 191 callsubr
          -53 -11 callgsubr
          105 callgsubr
          77 62 347 callsubr
          201 callsubr
          124 callgsubr
          64 -97 -83 -82 146 callgsubr
          -92 vhcurveto
          endchar
        </CharString>
        <CharString name="Lslash">
          -113 36 callsubr
          vstem
          46.97999572753906 646.9799957275391 rmoveto
          -123 vlineto
          219 93 rlineto
          -483.99000549316406 vlineto
          -168 -49 callgsubr
          1098 vlineto
          220 callsubr
          462.99000549316406 -134 23 -122 385 callgsubr
          -505 2 callgsubr
          rlineto
          580 vlineto
          383 164 rlineto
          -20 callsubr
          vlineto
          -383 -168 rlineto
          546 vlineto
          193 -96 callsubr
          -595 -29 callsubr
          165 -64 callsubr
          -643.9900054931641 vlineto
          -219 454 callgsubr
          endchar
        </CharString>
        <CharString name="M">
          -55 callgsubr
        </CharString>
        <CharString name="N">
          225 141 callgsubr
          858.0200042724609 123 callsubr
          6 callsubr
          endchar
        </CharString>
        <CharString name="NULL">
          -1413 endchar
        </CharString>
        <CharString name="Nacute">
          227 141 callgsubr
          858.0200042724609 123 callsubr
          vstem
          718.9900054931641 103 callsubr
          462 callgsubr
          278 callgsubr
          78 101 -153 -42 callgsubr
          -621 -1592 -100 callsubr
          endchar
        </CharString>
        <CharString name="Ncaron">
          227 284 callgsubr
          153.989990234375 148 hstem
          164 callsubr
          858.0200042724609 123 callsubr
          vstem
          508.99000549316406 11 callgsubr
          -255.02000427246094 189 -91 -61 rlineto
          -410.99000549316406 -1843 -100 callsubr
          endchar
        </CharString>
        <CharString name="Ncommaaccent">
          227 141 callgsubr
          408.00999450683594 187 263.010009765625 123 callsubr
          6 callsubr
          746.9900054931641 81 callsubr
          78 -39.02000427246094 rlineto
          -24 callsubr
          hlineto
          endchar
        </CharString>
        <CharString name="Ntilde">
          227 284 callgsubr
          161.989990234375 158 9 156.99000549316406 372 callgsubr
          hintmask 11011100
          652.9799957275391 189 callsubr
          hintmask 11101100
          141 85 84 callsubr
          -32.02000427246094 -83 -93 -114 -45 -11 callsubr
          404 callgsubr
          hhcurveto
          hintmask 11011100
          327 callsubr
          -107 250 callsubr
          257 callsubr
          hhcurveto
          -554.9900054931641 -1741.990005493164 -100 callsubr
          endchar
        </CharString>
        <CharString name="O">
          -63 callgsubr
          65.99000549316406 750 -104 callgsubr
        </CharString>
        <CharString name="OE">
          699 -6 callgsubr
          114.97000122070312 -98.97999572753906 134 584 126.47999572753906 556.0200042724609 121.49000549316406 -91 516 callsubr
          hstemhm
          62 callsubr
          256 693 234 357.989990234375 130 hintmask 01110111
          1026.990005493164 hmoveto
          974.9900054931641 hlineto
          76 358.99000549316406 -127 36.99000549316406 276 callgsubr
          -250.99000549316406 -560 -22.020004272460938 rlineto
          598.0200042724609 vlineto
          384 callsubr
          -6 30 -171 rlineto
          130 468.00999450683594 -130 hlineto
          -30 -164 -327.99000549316406 -7 rlineto
          566 vlineto
          483 -13 62 -191 rlineto
          127 hlineto
          172 callgsubr
          319 rlineto
          -879 hlineto
          hintmask 10101111
          -27 vlineto
          33 -76 -87 -58 callgsubr
          -95 hhcurveto
          -395 -54 callsubr
          -296 -306 -481.02000427246094 vvcurveto
          -457.99000549316406 234 -316.97999572753906 430 7 vhcurveto
          -48 callsubr
          -36 callsubr
          97.00999450683594 25 86 47.99000549316406 rrcurveto
          hintmask 01110111
          -58.97999572753906 vlineto
          hintmask 10101111
          232.97999572753906 vmoveto
          -86 -65 -91 -48 -116 hhcurveto
          -267 1 -154 344 callsubr
          371 vvcurveto
          443 158 235 261 126 87 -41 426 callsubr
          61 vhcurveto
          -1084 vlineto
          endchar
        </CharString>
        <CharString name="Oacute">
          -63 callgsubr
          599.9799957275391 132 callsubr
          277 callsubr
          -68 rlineto
          110 callsubr
          89 278 callgsubr
          78 101 -153 -42 callgsubr
          -534 -950.9900054931641 -104 callgsubr
        </CharString>
        <CharString name="Obreve">
          513 callsubr
          1326.989990234375 117 104 169 509 callsubr
          75.99998474121094 446 callsubr
          67.989990234375 259.00999450683594 vstem
          401.97999572753906 269 callsubr
          382 callgsubr
          -139 225 31 callsubr
          -166 -46 100 59 -9 hvcurveto
          -3 458 callsubr
          -121 hlineto
          -2 85 callsubr
          0 106 callgsubr
          106 callgsubr
          vvcurveto
          -336 -1205.990005493164 -104 callgsubr
        </CharString>
        <CharString name="Ocircumflex">
          -63 callgsubr
          380.99000549316406 1712.990005493164 rmoveto
          85 44 callsubr
          -183 hlineto
          -271 -300.00999450683594 rlineto
          -315 -962.9900054931641 -104 callgsubr
        </CharString>
        <CharString name="Odieresis">
          513 callsubr
          1326.989990234375 117 148.010009765625 171 callgsubr
          -43 callsubr
          259.99000549316406 28.999984741210938 280 220.010009765625 257 callgsubr
          19.009994506835938 259.00999450683594 hintmask 00000000
          hintmask 11111110
          354.97999572753906 104 callgsubr
          405 callgsubr
          39 callsubr
          -49 -50 callsubr
          500.02000427246094 119 callsubr
          -27 callsubr
          158 callsubr
          -97 -46 callsubr
          -50 callsubr
          hintmask 11010010
          -789.0099945068359 -1072.990005493164 -104 callgsubr
        </CharString>
        <CharString name="Ograve">
          -63 callgsubr
          425.97999572753906 28 callgsubr
          -1 hlineto
          -152 -127 rlineto
          -360 -1135 -104 callgsubr
        </CharString>
        <CharString name="Ohungarumlaut">
          -63 callgsubr
          364.99000549316406 374 callsubr
          95 23 callsubr
          -805 -968.9900054931641 -104 callgsubr
        </CharString>
        <CharString name="Omacron">
          513 callsubr
          1326.989990234375 117 207 158 509 callsubr
          138.00999450683594 465 callgsubr
          119.99998474121094 259.00999450683594 vstem
          463.99000549316406 50 callsubr
          -398 -1153.990005493164 -104 callgsubr
        </CharString>
        <CharString name="Oslash">
          -63 callgsubr
          316.97999572753906 -183 -61 callgsubr
        </CharString>
        <CharString name="Oslashacute">
          -63 callgsubr
          558 -3 callgsubr
          -241 -1883.990005493164 -61 callgsubr
        </CharString>
        <CharString name="Otilde">
          513 callsubr
          1326.989990234375 117 145 267 callsubr
          -43 callsubr
          259.99000549316406 827.9999847412109 259.00999450683594 hintmask 11011100
          569 1850.979995727539 rmoveto
          123 52 -167 104 callsubr
          hhcurveto
          hintmask 11101100
          141 85 378 callsubr
          40.02000427246094 hvcurveto
          383 callsubr
          64 325 callsubr
          -22 177 callgsubr
          -83 -93 422 callsubr
          305 callsubr
          355 callgsubr
          -27 hvcurveto
          -6 callsubr
          -63 rlineto
          33 22 243 callgsubr
          86 91.02000427246094 hhcurveto
          -503.00999450683594 -1100.990005493164 -104 callgsubr
        </CharString>
        <CharString name="P">
          -55 callsubr
        </CharString>
        <CharString name="Q">
          89 -425 173.99000549316406 228.00999450683594 -23 callgsubr
          1326.989990234375 117 hstem
          463 callsubr
          260.00999450683594 827.9900054931641 259.00999450683594 vstem
          463 callsubr
          750 rmoveto
          -462.00999450683594 226.02000427246094 -317.97999572753906 435 7 vhcurveto
          45 1 43 5 41.97999572753906 8 rrcurveto
          -32 265.02000427246094 90 callsubr
          -384 355 hhcurveto
          192 callsubr
          hlineto
          128 162 callsubr
          47 18 23 hvcurveto
          -33 110 rlineto
          -1 -13 -26 0 -16 hhcurveto
          -35 callsubr
          hlineto
          -213 -281 404 callsubr
          10.020004272460938 -257.99000549316406 hvcurveto
          239 -23 callgsubr
          156 261.02000427246094 353 vvcurveto
          460 -219 302 -436 -395.02000427246094 -297 -307 -482 vhcurveto
          260.00999450683594 -23 callsubr
          250.99000549316406 24 callsubr
          -163.99000549316406 -225.02000427246094 -250 -263 -151 255 401 vhcurveto
          endchar
        </CharString>
        <CharString name="R">
          176 callsubr
          498 488 callsubr
          vstem
          95.99000549316406 108.99000549316406 -93 callgsubr
          endchar
        </CharString>
        <CharString name="Racute">
          176 callsubr
          498 488 callsubr
          vstem
          576.9799957275391 132 callsubr
          277 callsubr
          -68 rlineto
          110 callsubr
          89 278 callgsubr
          55 callgsubr
          101 -153 -42 callgsubr
          -481 -1592 -93 callgsubr
          endchar
        </CharString>
        <CharString name="Rcaron">
          27 0 -41 callgsubr
          545.989990234375 118 636 117 139 148 358 callgsubr
          498 488 callsubr
          vstem
          377 1951.990005493164 rmoveto
          255 15 callsubr
          -90.99000549316406 -61 rlineto
          -281.00999450683594 -1843 -93 callgsubr
          endchar
        </CharString>
        <CharString name="Rcommaaccent">
          176 callsubr
          240.010009765625 187 70.989990234375 488 callsubr
          vstem
          95.99000549316406 108.99000549316406 -93 callgsubr
          37 -1344 -47 callgsubr
        </CharString>
        <CharString name="S">
          235 callgsubr
          116.97999572753906 69.97999572753906 -105 callgsubr
          endchar
        </CharString>
        <CharString name="Sacute">
          235 callgsubr
          491.99000549316406 103 callsubr
          462 callgsubr
          278 callgsubr
          78 101 -153 -42 callgsubr
          -375.00999450683594 -1631 -105 callgsubr
          endchar
        </CharString>
        <CharString name="Scaron">
          -198 -23 -41 callgsubr
          1324.989990234375 117 137 148 168 callsubr
          527.0200042724609 353 callsubr
          291.97999572753906 11 callgsubr
          -255 189 359 callsubr
          -61 rlineto
          -175 -1882 -105 callgsubr
          endchar
        </CharString>
        <CharString name="Scedilla">
          -198 52 callgsubr
          307.00999450683594 -23 callgsubr
          1324.979995727539 117 168 callsubr
          217.00999450683594 290 callsubr
          131.02000427246094 353 callsubr
          1131.990005493164 418 rmoveto
          245.99000549316406 -228 113.00999450683594 -192 95 vhcurveto
          -214 105 -137 68 159 324 callgsubr
          87.02000427246094 76 98 callsubr
          100 88 -30 -56 callsubr
          24 vhcurveto
          46 -243.02000427246094 rlineto
          134 hlineto
          12.990005493164062 343.02000427246094 rlineto
          9 -60 callsubr
          -147 64 -194.99000549316406 hhcurveto
          -306.02000427246094 -192 -166 -228 -269 240 -126 164 12 callgsubr
          hvcurveto
          209 -94 140 -73 239 callgsubr
          vvcurveto
          -154 -97 -97 -203.02000427246094 92 callsubr
          -7 callsubr
          41 46 -42.99000549316406 vhcurveto
          -40 256 rlineto
          -139.02000427246094 hlineto
          -17 -370.00999450683594 60 -5.9799957275390625 145 -73.99000549316406 208 -11 rlinecurve
          218 callsubr
          433 callgsubr
          27 -67 -59 113 callsubr
          110.99000549316406 -68 79 callsubr
          -47 54 rrcurveto
          328 24.979995727539062 156 216 198 vvcurveto
          endchar
        </CharString>
        <CharString name="Scircumflex">
          235 callgsubr
          273 102 callgsubr
          484 callsubr
          170 callsubr
          -156.02000427246094 -1643 -105 callgsubr
          endchar
        </CharString>
        <CharString name="Scommaaccent">
          38 callgsubr
          221.00999450683594 187 119.010009765625 353 callsubr
          116.97999572753906 69.97999572753906 -105 callgsubr
          488.02000427246094 -629.9900054931641 rmoveto
          28 37 callgsubr
          78 -39.02000427246094 rlineto
          3 hlineto
          endchar
        </CharString>
        <CharString name="T">
          252 callgsubr
          hstem
          302 callsubr
          241 vstem
          -25 callgsubr
          endchar
        </CharString>
        <CharString name="Tbar">
          35 0 121 532.9799957275391 127 617 124 hstem
          603.9900054931641 86 callgsubr
          vstem
          364.99000549316406 780.9799957275391 rmoveto
          -127 239 -520.9900054931641 vlineto
          -261 -49 callgsubr
          785 -97 callgsubr
          -283.02000427246094 24 rlineto
          520.9900054931641 236.02000427246094 127 -236.02000427246094 622 vlineto
          320 -10 76 -418 rlineto
          143 hlineto
          -32 547 rlineto
          48 callgsubr
          -622 -239 vlineto
          endchar
        </CharString>
        <CharString name="Tcaron">
          252 callgsubr
          154 148 hstem
          302 callsubr
          241 vstem
          377 1951.990005493164 rmoveto
          255 15 callsubr
          -90.99000549316406 -61 rlineto
          -53 -1843 -96 callgsubr
          785 -97 callgsubr
          -53 callsubr
          -261 -24 rlineto
          endchar
        </CharString>
        <CharString name="Thorn">
          -86 0 -45 callgsubr
          216 113 615 121 230.989990234375 107 hstem
          262.97999572753906 233 519 361 callsubr
          vstem
          94.99000549316406 508 callgsubr
          617 145 callgsubr
          vlineto
          -216 24 rlineto
          212 vlineto
          227 callgsubr
          58 71 -54 callsubr
          115 hhcurveto
          327 202 139 310 268 -169 126 callgsubr
          -293.99000549316406 -116 120 callsubr
          -12 -8 -98 hvcurveto
          223 vlineto
          174 28 rlineto
          345 callgsubr
          -571.9900054931641 293 callsubr
          vlineto
          104 callsubr
          -28 rlineto
          -1256 vlineto
          336 callgsubr
          920 665 rmoveto
          -241 -129 -82.97999572753906 -168 -68 -72 -1 10 -82 vhcurveto
          588 vlineto
          49 7 69 -2 callgsubr
          76 2 rrcurveto
          239 6 86 -119 -178 vvcurveto
          endchar
        </CharString>
        <CharString name="U">
          -19 callsubr
          201 callgsubr
          642.9900054931641 -106 callsubr
        </CharString>
        <CharString name="Uacute">
          -19 callsubr
          647.9900054931641 103 callsubr
          89 278 callgsubr
          78 101 -153 -42 callgsubr
          -464 -1058 -106 callsubr
        </CharString>
        <CharString name="Ubreve">
          -24 callgsubr
          120.989990234375 169 395 callsubr
          20.999984741210938 446 callsubr
          29 -11 callsubr
          hintmask 00000000
          hintmask 11111110
          448.97999572753906 269 callsubr
          120.02000427246094 -139 73 callgsubr
          31 callsubr
          -166 -46 100 59 87 callsubr
          hvcurveto
          -3 458 callsubr
          -121 hlineto
          -2 85 callsubr
          0 106 callgsubr
          106 callgsubr
          vvcurveto
          hintmask 11110010
          -264.99000549316406 -1312.990005493164 -106 callsubr
        </CharString>
        <CharString name="Ucircumflex">
          -19 callsubr
          427.99000549316406 -13 callsubr
          -244 -1070 -106 callsubr
        </CharString>
        <CharString name="Udieresis">
          -24 callgsubr
          165 295.99000549316406 395 callsubr
          -25.000015258789062 354 callsubr
          -20.989990234375 -11 callsubr
          hintmask 00000000
          hintmask 11101100
          402.97999572753906 104 callgsubr
          405 callgsubr
          -60.99000549316406 75 vhcurveto
          1 hlineto
          105 48.99000549316406 66 callsubr
          hintmask 11110010
          -718.9900054931641 -1180 -106 callsubr
        </CharString>
        <CharString name="Ugrave">
          -19 callsubr
          477 1885 rmoveto
          69 120 callsubr
          381 callsubr
          84 callgsubr
          -1 hlineto
          -151.99000549316406 -127 rlineto
          -293 -1242 -106 callsubr
        </CharString>
        <CharString name="Uhungarumlaut">
          -19 callsubr
          412 374 callsubr
          95 23 callsubr
          -734 -1076 -106 callsubr
        </CharString>
        <CharString name="Umacron">
          -24 callgsubr
          223.989990234375 158 508 callsubr
          83.00999450683594 465 callgsubr
          81.00999450683594 -11 callsubr
          vstem
          511 50 callsubr
          -327 -1260.990005493164 -106 callsubr
        </CharString>
        <CharString name="Uogonek">
          95 -510.99000549316406 146 349 -45 callgsubr
          1307.990005493164 111 508 callsubr
          128.00999450683594 328 callsubr
          398.00999450683594 -11 callsubr
          vstem
          201 callgsubr
          642.9900054931641 rmoveto
          -456.00999450683594 177.99000549316406 -202.97000122070312 414 8 9 0 1 259 callgsubr
          vhcurveto
          -130 -65 -116 -126.02000427246094 -109 vvcurveto
          -146 129 -50 145 callsubr
          217 callsubr
          -22 callsubr
          27 43 341 callgsubr
          vhcurveto
          109 441 callgsubr
          -82 -65 366 callsubr
          86 80 93 101.00999450683594 121 429 callgsubr
          hvcurveto
          528 callgsubr
          71 4 callsubr
          193 339.99000549316406 vvcurveto
          766 vlineto
          148 -96 callsubr
          -479 -29 callsubr
          165 -90 callgsubr
          rlineto
          -775.9900054931641 vlineto
          -320 -120.00999450683594 -186 -239 -222.99000549316406 -152 145 callsubr
          387.00999450683594 vhcurveto
          764.9900054931641 vlineto
          170 -96 callsubr
          -558 -29 callsubr
          144 -90 callgsubr
          rlineto
          -741.9900054931641 vlineto
          endchar
        </CharString>
        <CharString name="Uring">
          -24 callgsubr
          83 99 309.989990234375 100 395 callsubr
          31.999984741210938 161 346 159 36.010009765625 -11 callsubr
          hintmask 00000000
          hintmask 11111111
          459.97999572753906 1862.979995727539 rmoveto
          125 callsubr
          -54 callsubr
          101 -116 232 hhcurveto
          1 hlineto
          525 callgsubr
          152 5 callgsubr
          162 2 hvcurveto
          149.02000427246094 1 -107 -75 callgsubr
          -215 hhcurveto
          -1 hlineto
          -174 -167 -86 -165 -3 hvcurveto
          336.02000427246094 198 callgsubr
          rmoveto
          -1 hlineto
          -123 -51 11 callsubr
          82 95.00999450683594 53 61 callsubr
          122 hvcurveto
          1 hlineto
          122.99000549316406 47 -74 138 callgsubr
          -93 -47 -53 92 callsubr
          hvcurveto
          hintmask 11111001
          -612 -1061 -106 callsubr
        </CharString>
        <CharString name="Utilde">
          -24 callgsubr
          161.989990234375 158 9 156.99000549316406 395 callsubr
          734.0099945068359 -11 callsubr
          hintmask 11011100
          616 1850.979995727539 rmoveto
          342 callsubr
          52.02000427246094 -167 104 callsubr
          hhcurveto
          hintmask 11101100
          141 -30 callsubr
          84 callsubr
          177 callgsubr
          -83 -93 427 callgsubr
          -45 355 callgsubr
          172 callgsubr
          hvcurveto
          -22 callsubr
          -63 rlineto
          33 346 callgsubr
          243 callgsubr
          86 91.02000427246094 hhcurveto
          -432 -1207.990005493164 -106 callsubr
        </CharString>
        <CharString name="V">
          -46 1410.990005493164 111 hstemhm
          423 callgsubr
          1441.990005493164 -462.00999450683594 462 hintmask 11000000
          93 1384.979995727539 rmoveto
          512.9900054931641 -1399.9700012207031 rlineto
          188 hlineto
          hintmask 10100000
          482 1399.9700012207031 228 callsubr
          -96 callsubr
          -462.00999450683594 -29 callsubr
          156 -90 callgsubr
          -303 -948.9900054931641 -59 -236 -68 233 468 callsubr
          953 184 -79 callgsubr
          -560.9900054931641 -29 callsubr
          hintmask 11000000
          126.99000549316406 -90 callgsubr
          rlineto
          endchar
        </CharString>
        <CharString name="W">
          18 callgsubr
          5 callgsubr
          1384 -91 callsubr
        </CharString>
        <CharString name="Wacute">
          18 callgsubr
          879.9799957275391 132 callsubr
          277 callsubr
          -68 rlineto
          107 callgsubr
          hlineto
          89 278 callgsubr
          55 callgsubr
          101 -153 -42 callgsubr
          -790 -316.99000549316406 -91 callsubr
        </CharString>
        <CharString name="Wcircumflex">
          18 callgsubr
          660.9900054931641 -13 callsubr
          -571 468 callsubr
          -91 callsubr
        </CharString>
        <CharString name="Wdieresis">
          633 241 callgsubr
          -47 callsubr
          1266.990005493164 111 165 295.99000549316406 hstem
          634.9799957275391 354 callsubr
          174 498.00999450683594 vstem
          634.9799957275391 53 callsubr
          -97 -49 -75 -85.00999450683594 hvcurveto
          -1045 -438.99000549316406 rmoveto
          432 -1393.990005493164 rlineto
          291 callsubr
          hlineto
          295.02000427246094 995.9799957275391 302 -995.9799957275391 rlineto
          216 hlineto
          413 1393.990005493164 133 27 rlineto
          111 -498.00999450683594 -29 callsubr
          202.02000427246094 -27 -261 -946.0099945068359 -53 -294 -61 294 -274 947 192 -96 callsubr
          -577.9900054931641 -29 callsubr
          140.99000549316406 -90 callgsubr
          56.02000427246094 -175.99000549316406 -229 -771.0099945068359 -60 callsubr
          -271 -52.02000427246094 271 -279 946.0099945068359 183 27 rlineto
          111 -558.9799957275391 -29 callsubr
          133.97999572753906 -27 rlineto
          endchar
        </CharString>
        <CharString name="Wgrave">
          18 callgsubr
          705.9900054931641 1885 rmoveto
          69 120 callsubr
          242.02000427246094 84 callgsubr
          -1 hlineto
          -152 -127 rlineto
          -616 -501 -91 callsubr
        </CharString>
        <CharString name="X">
          -45 callsubr
        </CharString>
        <CharString name="Y">
          16 callgsubr
          332.97999572753906 108.99000549316406 -65 callgsubr
        </CharString>
        <CharString name="Yacute">
          16 callgsubr
          540 -3 callgsubr
          -207.02000427246094 -1592 -65 callgsubr
        </CharString>
        <CharString name="Ycircumflex">
          16 callgsubr
          320.97999572753906 197 callsubr
          85.02000427246094 32 callgsubr
          -271.00999450683594 170 callsubr
          12 -1604 -65 callgsubr
        </CharString>
        <CharString name="Ydieresis">
          -96 120 callgsubr
          1290.490005493164 111 165 171 callgsubr
          294.99000549316406 280 -23 242.99000549316406 0.0099945068359375 280 -200.010009765625 473 hintmask 00000000
          hintmask 11110100
          294.99000549316406 229 callsubr
          -18 callgsubr
          -98.02000427246094 -8 callgsubr
          -87.99000549316406 hvcurveto
          -1 hlineto
          -97.00999450683594 -46 callsubr
          -50 callsubr
          -462.00999450683594 -1714 188 callsubr
          hintmask 11101010
          -95 callsubr
          hintmask 11110100
          -219.02000427246094 -24 rlineto
          endchar
        </CharString>
        <CharString name="Ygrave">
          16 callgsubr
          366.97999572753906 1885 rmoveto
          430 callsubr
          120 callsubr
          242 -127 92 -29 rrcurveto
          1 hlineto
          79.99000549316406 68 -331 380 callgsubr
          -1 hlineto
          -152 -127 rlineto
          -34 -1776 -65 callgsubr
        </CharString>
        <CharString name="Z">
          -67 0 184 callgsubr
          hstem
          429 callsubr
          1191.009994506836 vstem
          429 callsubr
          98 -82 callsubr
          endchar
        </CharString>
        <CharString name="Zacute">
          -67 0 184 callgsubr
          hstem
          429 callsubr
          1191.009994506836 vstem
          517 callsubr
          103 callsubr
          89 278 callgsubr
          55 callgsubr
          101 -153 -42 callgsubr
          -501 -1602.990005493164 -82 callsubr
          endchar
        </CharString>
        <CharString name="Zcaron">
          -67 0 184 callgsubr
          148 148 hstem
          429 callsubr
          1191.009994506836 vstem
          366 260 callsubr
          -91 -61 rlineto
          -301.02000427246094 -1853.990005493164 -82 callsubr
          endchar
        </CharString>
        <CharString name="Zdotaccent">
          -67 0 184 callgsubr
          165.010009765625 451 callgsubr
          464 callsubr
          286 vstem
          464 callsubr
          41 callsubr
          78 vhcurveto
          110 callsubr
          105 405 callgsubr
          68 88 71 -49 335 callgsubr
          -503.00999450683594 -1729.990005493164 -82 callsubr
          endchar
        </CharString>
        <CharString name="a">
          -77 callsubr
          28 callsubr
          421.00999450683594 240 callsubr
          hintmask 01111100
          755 691 -101 callgsubr
        </CharString>
        <CharString name="aacute">
          -77 callsubr
          28 callsubr
          421.00999450683594 240 callsubr
          hintmask 01111100
          426.99000549316406 -40 callgsubr
          -330 -406 rlineto
          328.00999450683594 -717 -101 callgsubr
        </CharString>
        <CharString name="abreve">
          -77 callsubr
          190.00999450683594 434 callgsubr
          28 callsubr
          144 callsubr
          122 412 240 callsubr
          -191.99000549316406 118 hintmask 0000000000000000
          hintmask 0111101010000000
          221 48 callsubr
          293 callgsubr
          hlineto
          153 callsubr
          -1 -13 -2 -16 vhcurveto
          12 callgsubr
          -10 320 callgsubr
          365 callgsubr
          445 callsubr
          -2.9900054931640625 71 callsubr
          hintmask 0111110100000000
          534 -1002 -95 callgsubr
          hintmask 1011110100000000
          -102 callgsubr
          hintmask 0111110100000000
          -93 callsubr
        </CharString>
        <CharString name="acircumflex">
          -77 callsubr
          28 callsubr
          421.00999450683594 240 callsubr
          hintmask 01111100
          185 442 callsubr
          288 callgsubr
          258 callsubr
          105 callgsubr
          58 -281.00999450683594 94 callsubr
          -287.99000549316406 246 callgsubr
          570 -691 -101 callgsubr
        </CharString>
        <CharString name="acute">
          478 callsubr
          516 callgsubr
          490 vstem
          516 callgsubr
          1408 rmoveto
          463 callgsubr
          30 callsubr
          433 callsubr
          -406 rlineto
          endchar
        </CharString>
        <CharString name="acute.cap">
          -360 1632.990005493164 379 hstem
          503.99000549316406 485 vstem
          503.99000549316406 103 callsubr
          89 278 callgsubr
          78 101 -153 -42 callgsubr
          endchar
        </CharString>
        <CharString name="adieresis">
          -81 callgsubr
        </CharString>
        <CharString name="ae">
          -83 callgsubr
        </CharString>
        <CharString name="aeacute">
          351 352 callgsubr
          -99 -75 callgsubr
          307.99998474121094 164 -113.989990234375 121 hstemhm
          86 345 callsubr
          416 345 callsubr
          468.99998474121094 490 callsubr
          hintmask 11001111
          777.9900054931641 93 callsubr
          69 -1213.009994506836 rmoveto
          -136 83 140.99000549316406 291 callgsubr
          199 337 callgsubr
          -38 callsubr
          -130 -47 -114 hhcurveto
          -181 470 callgsubr
          128 305 87 callsubr
          hvcurveto
          694 hlineto
          10 47.99000549316406 2 63 85.02000427246094 vvcurveto
          264.99000549316406 210 callsubr
          511 callsubr
          -150 -129 -55 199 callsubr
          -94 hvcurveto
          hintmask 10110111
          90 callgsubr
          -52 127 callgsubr
          43 -179.02000427246094 hhcurveto
          -192.99000549316406 -226.02000427246094 -112 -47 -53.99000549316406 hvcurveto
          -62 callgsubr
          127 callgsubr
          rlineto
          42 105 callgsubr
          127 1 callsubr
          150 hhcurveto
          176 42 -68 -179 hvcurveto
          -61 vlineto
          -339 -6 -325 -101 258 callsubr
          vvcurveto
          -225 164 -98.97999572753906 525 callgsubr
          vhcurveto
          hintmask 11001111
          209.02000427246094 -19 callgsubr
          126.99000549316406 91 64 hvcurveto
          151 485 rmoveto
          283 13 80 callgsubr
          84 136 hhcurveto
          209 callsubr
          341 callgsubr
          -126.00999450683594 -155 -56 callgsubr
          hvcurveto
          -25 -64 callgsubr
          -34 -2 -27 vhcurveto
          -466 hlineto
          -195.02000427246094 -393.00999450683594 rmoveto
          -69 -40.97999572753906 -116.02000427246094 138 callgsubr
          -122 hhcurveto
          -108 -82 424 callgsubr
          150 hvcurveto
          hintmask 10101111
          131 118 117 298 1 vhcurveto
          -2 vlineto
          274 callgsubr
          -5 rlineto
          -3 vlineto
          hintmask 11001111
          471 callsubr
          221 callsubr
          -95 30.990005493164062 -83 vhcurveto
          endchar
        </CharString>
        <CharString name="agrave">
          -77 callsubr
          28 callsubr
          421.00999450683594 240 callsubr
          hintmask 01111100
          209 506 callsubr
          1 callsubr
          142 callsubr
          0.9900054931640625 450 callsubr
          -330 406 rlineto
          -1 hlineto
          198 callgsubr
          -139 rlineto
          546 -984 -101 callgsubr
        </CharString>
        <CharString name="amacron">
          -77 callsubr
          267.00999450683594 158 28 callsubr
          106 callsubr
          398 callgsubr
          -86.99000549316406 240 callsubr
          hintmask 00000000
          hintmask 01111010
          284 34 callsubr
          hintmask 01111101
          471 -895 -95 callgsubr
          hintmask 10111101
          -102 callgsubr
          hintmask 01111101
          -93 callsubr
        </CharString>
        <CharString name="ampersand">
          138 -19 75 callgsubr
          614 123 597.989990234375 100 hstemhm
          121 307 callsubr
          -93 218 358.989990234375 343 callsubr
          167 167 hintmask 11110110
          1025.990005493164 841.9900054931641 rmoveto
          -123 vlineto
          274 callsubr
          -25 192 callsubr
          -115 96 callsubr
          -145 -78.99000549316406 -111 rlinecurve
          124 callgsubr
          43.99000549316406 -100.99000549316406 99 -177 204 -95 117 rlinecurve
          183 124.00999450683594 156 103 242 vvcurveto
          134 -114 150 -251 vhcurveto
          hintmask 11101110
          -235 -174 -163 -195 -151 84 -158 5 callgsubr
          -116.99000549316406 hvcurveto
          hintmask 11110110
          -145 -82 399 callsubr
          422 callsubr
          240 callgsubr
          vvcurveto
          -254 215 138 callsubr
          331 103 151 -68 callsubr
          88 112 vhcurveto
          95 -77 -43 callsubr
          177 callgsubr
          100 -64 callgsubr
          rrcurveto
          35 87 62 callgsubr
          16.990005493164062 29 hvcurveto
          -22 callsubr
          vlineto
          -105 9.020004272460938 -1 callgsubr
          428 callsubr
          -76 70 92 101 -11 callgsubr
          168 -35 callsubr
          192 161 25 rcurveline
          123 -489 vlineto
          hintmask 11101110
          -411 24.990005493164062 rmoveto
          -63 277 callgsubr
          -88 115 154 vvcurveto
          133 82 347 callsubr
          105 150 22 -123 -70 -2 callsubr
          -57 359 callsubr
          -151 -123 vhcurveto
          321.99000549316406 -688.9900054931641 rmoveto
          -52 -75 400 callgsubr
          286 callgsubr
          -80.02000427246094 hhcurveto
          hintmask 11110110
          -230.99000549316406 -112.00999450683594 139.02000427246094 155 117 329 callsubr
          327 callgsubr
          -30 callsubr
          72 hvcurveto
          hintmask 11101110
          122 -146 188 -220 137 -128 rrcurveto
          endchar
        </CharString>
        <CharString name="ampersand.sc">
          -389 endchar
        </CharString>
        <CharString name="aogonek">
          -265 -510.99000549316406 146 341.99000549316406 123 callsubr
          -116.010009765625 98.00999450683594 467.99000549316406 113 303.99000549316406 166 28 callsubr
          242.01998901367188 328 callsubr
          -29 240 callsubr
          hintmask 11011101
          755 691 -95 callgsubr
          hintmask 10111101
          -48 vlineto
          -75 218 callsubr
          -19.979995727539062 50 -5 vhcurveto
          hintmask 10111110
          -143 -69.02000427246094 -122 92 callsubr
          -101 vvcurveto
          125 callsubr
          72 callsubr
          -54 134 84 -22 callsubr
          -68 callsubr
          43 57 vhcurveto
          110 441 callgsubr
          334 callgsubr
          -64 35 86 78 116 115 146 51 hvcurveto
          hintmask 10111101
          -26 callgsubr
          383 callgsubr
          17 4 219 callgsubr
          4 rrcurveto
          98.02000427246094 -122 650 vlineto
          291 -98 110 -289.00999450683594 -192.99000549316406 -224 -115 -42 -46 vhcurveto
          50 -104 rlineto
          1 hlineto
          36.99000549316406 73.02000427246094 133 58 150 hhcurveto
          176 47 -70.97999572753906 -181 hvcurveto
          hintmask 11011101
          -93 callsubr
        </CharString>
        <CharString name="approxequal">
          -23 97 callsubr
          173.99000549316406 153 callsubr
          172.99000549316406 248.99998474121094 173.99000549316406 153 callsubr
          173.00999450683594 hstemhm
          204.97999572753906 984 hintmask 01011000
          204.97999572753906 886.9900054931641 rmoveto
          217 callsubr
          -95 rlineto
          53 -27 callsubr
          68.02000427246094 57 93 hhcurveto
          hintmask 01101000
          76 callgsubr
          -588 vmoveto
          217 callsubr
          -95 rlineto
          53 -27 callsubr
          68.02000427246094 341 callgsubr
          93 hhcurveto
          hintmask 10011000
          76 callgsubr
          endchar
        </CharString>
        <CharString name="aring">
          -77 callsubr
          148.02000427246094 -42 callsubr
          348 109.00999450683594 28 callsubr
          -106.00001525878906 159 350.010009765625 156.99000549316406 -138.99000549316406 240 callsubr
          hintmask 0111110101000000
          227.97999572753906 338 callgsubr
          hintmask 0111110110000000
          314 callgsubr
          hintmask 0111110101000000
          -170 220 callgsubr
          -98 -176 -3 hvcurveto
          hintmask 0111110110000000
          337 -183 rmoveto
          -18 callgsubr
          -123 -54 87 -6 callsubr
          90 callgsubr
          61 callsubr
          481 callsubr
          48 291 callgsubr
          120 callsubr
          -112 -48 -58 -124 hvcurveto
          hintmask 0111111001000000
          190.02000427246094 -723.9900054931641 -95 callgsubr
          hintmask 1011110101000000
          -102 callgsubr
          hintmask 0111111001000000
          -93 callsubr
        </CharString>
        <CharString name="arrowboth">
          1149 683.9900054931641 79 callgsubr
          hstem
          110 2382.990005493164 vstem
          1900.990005493164 177.99000549316406 rmoveto
          592 590.9900054931641 -592 593 -116 -117.99000549316406 402 -401 -121.02000427246094 12.990005493164062 rlineto
          -1529 hlineto
          -121 387 callsubr
          402 401 -115 -23 callgsubr
          -593 -593 593 -590.9900054931641 115 117 -402 402 121 -13 rlineto
          1529 hlineto
          121.02000427246094 13 -402 -402 116 -117 rlineto
          endchar
        </CharString>
        <CharString name="arrowdown">
          123 -19 callgsubr
          417 callgsubr
          448.97999572753906 rmoveto
          219 callgsubr
          121.02000427246094 rlineto
          883 vlineto
          407 callgsubr
          -1 rlineto
          -882 vlineto
          13 -122 -402 402.97999572753906 -117 -115 591.0200042724609 -593 593 593 -118 115 -402 -402 rlineto
          endchar
        </CharString>
        <CharString name="arrowleft">
          123 683.9900054931641 79 callgsubr
          hstem
          -3 callsubr
          1308.990005493164 vstem
          -3 callsubr
          489 callsubr
          rmoveto
          592 -590.9900054931641 116 117 -403.00999450683594 402 122.02000427246094 -13 rlineto
          879.9900054931641 hlineto
          381 callgsubr
          rlineto
          -882 hlineto
          -122.02000427246094 85 callsubr
          403.00999450683594 402 -116 -23 callgsubr
          -592 -593 rlineto
          endchar
        </CharString>
        <CharString name="arrowright">
          123 683.9900054931641 79 callgsubr
          hstem
          145 callgsubr
          1308.990005493164 vstem
          1415.990005493164 489 callsubr
          rmoveto
          -592 593 -116 -117.99000549316406 403 -402 -122 -58 callgsubr
          rlineto
          -882.0099945068359 hlineto
          2 220 callgsubr
          rlineto
          880 hlineto
          122 13 -403 -402 116 -117 592 590.9900054931641 rlineto
          endchar
        </CharString>
        <CharString name="arrowup">
          123 343 callgsubr
          417 callgsubr
          1143.990005493164 rmoveto
          402 -402 118 115 -593 593 -591.0200042724609 -593 117 -115 402 403 -13 -122 rlineto
          -882.0200042724609 vlineto
          172.02000427246094 -1 rlineto
          883.0200042724609 vlineto
          106 callgsubr
          121 rlineto
          endchar
        </CharString>
        <CharString name="arrowupdn">
          123 -420 2381.990005493164 hstem
          681.9799957275391 172 vstem
          1359.990005493164 1369.990005493164 rmoveto
          -591.9900054931641 592 -592.0200042724609 -592 117 -116 402 402 -13 -121 rlineto
          -1528.020004272461 vlineto
          13 -120.97000122070312 -402 401.97999572753906 -117 -116 592.0200042724609 -591.9900054931641 525 callsubr
          525 callsubr
          -118 116 -401 -402.97999572753906 13 121.97999572753906 rlineto
          1528.020004272461 vlineto
          -13 122 401 -403 118 116 rlineto
          endchar
        </CharString>
        <CharString name="asciicircum">
          -50 271.99000549316406 1258.979995727539 hstem
          434 callgsubr
          1002.9799957275391 vstem
          367 callgsubr
          1530.979995727539 rmoveto
          -399 -1258.990005493164 rlineto
          208 hlineto
          292 1036 244 callgsubr
          -1036 rlineto
          210 hlineto
          -403.99000549316406 1258.990005493164 rlineto
          -200 hlineto
          endchar
        </CharString>
        <CharString name="asciitilde">
          3 440.99000549316406 173.99000549316406 -8.000015258789062 172.99000549316406 hstemhm
          214.99000549316406 983.9799957275391 hintmask 01100000
          215 525 callsubr
          rmoveto
          327 callgsubr
          -95 rlineto
          53 49 220 callsubr
          57 93 hhcurveto
          hintmask 10100000
          131.02000427246094 63 -2 callsubr
          487 callsubr
          hhcurveto
          145 426 callgsubr
          94 94.99000549316406 1 callsubr
          hvcurveto
          242 callgsubr
          95 rlineto
          -55 -47 -64 333 callgsubr
          -97 hhcurveto
          hintmask 01100000
          -122 -70 104 callsubr
          -181 hhcurveto
          -146 -122 -99 153 callgsubr
          -51 hvcurveto
          endchar
        </CharString>
        <CharString name="asterisk">
          -99 632.9900054931641 1050.990005493164 hstem
          97 callsubr
          1017.9900054931641 vstem
          151.97999572753906 978.9799957275391 rmoveto
          104.02000427246094 363 callsubr
          491 callsubr
          186 127.02000427246094 75 callgsubr
          -38 -173 -31 -305.99000549316406 209.02000427246094 1 433 callgsubr
          405 callsubr
          173 callgsubr
          171 134 172 callsubr
          243 -182 105 183 -281.99000549316406 426 callgsubr
          -172 -27 callsubr
          172 53 277 127 -103 175 -247 -186 -127 81 callgsubr
          9 callsubr
          169.97999572753906 32 406 callsubr
          rlineto
          -208 hlineto
          39 -307 43 -171 -132.02000427246094 119 -246.99000549316406 181.99000549316406 -101.00999450683594 363 callsubr
          344 callsubr
          -122 169 -49 -169 -53 -278.02000427246094 -127 rlineto
          endchar
        </CharString>
        <CharString name="at">
          790 -513 329 callgsubr
          330.0199890136719 191.97999572753906 -184.989990234375 163 767.9900054931641 275 callsubr
          353.00999450683594 4 callsubr
          hstemhm
          185.99000549316406 163 265 199 484.989990234375 363 callgsubr
          389.02000427246094 97 callsubr
          hintmask 1101111110000000
          1262 1542.979995727539 rmoveto
          -563.0200042724609 -512.9900054931641 -473.99000549316406 -708.0099945068359 -536.9900054931641 257 callgsubr
          -337 488.02000427246094 197 186 61 86 80 callgsubr
          hvcurveto
          -40 5 callgsubr
          rlineto
          -52.99000549316406 401 callsubr
          240 callgsubr
          433 callgsubr
          -143 hhcurveto
          -354 -287.99000549316406 256 516.9900054931641 619.0099945068359 395.99000549316406 378 440.00999450683594 428 callgsubr
          318.02000427246094 -177 -482 hvcurveto
          hintmask 1011111110000000
          -370 -210 -241 -144.02000427246094 -28 -18.990005493164062 79.99000549316406 142 11.979995727539062 vhcurveto
          303 callgsubr
          197 424 callgsubr
          304 32 145 -49 -58 callgsubr
          -35 17 -41 12 -21 callgsubr
          330 callgsubr
          -11 -28.020004272460938 3 callgsubr
          -56 callsubr
          rrcurveto
          39 275 callgsubr
          402 callsubr
          16 -70 hhcurveto
          -327.99000549316406 -200 -385.99000549316406 486 callsubr
          hvcurveto
          hintmask 1101111110000000
          403 callgsubr
          148 -152.97999572753906 135.99000549316406 162 150.02000427246094 288 callsubr
          -8 callsubr
          462 callsubr
          vhcurveto
          hintmask 1011111110000000
          -23.990005493164062 -140.99000549316406 -7 -93 5 -56.02000427246094 rrcurveto
          -115 382 callsubr
          75 callsubr
          -64 71 hhcurveto
          170.99000549316406 396 275 549.9900054931641 hvcurveto
          hintmask 1101111110000000
          501 -297 249 -420.99000549316406 vhcurveto
          431 callgsubr
          -1390 rmoveto
          -105 -27 164 345 callgsubr
          -8 callsubr
          90 callgsubr
          239 177 63 125.00999450683594 -33 -41 39 hvcurveto
          -9 -63 286 callgsubr
          -78 -25 -74 rrcurveto
          -228 -80 125 callsubr
          -229 120 callsubr
          hhcurveto
          endchar
        </CharString>
        <CharString name="atilde">
          -77 callsubr
          175.02000427246094 265 callsubr
          84.99000549316406 248.99000549316406 421.00999450683594 240 callsubr
          hintmask 01110111
          -15 callgsubr
          1448 rmoveto
          347 callsubr
          248 callgsubr
          hintmask 01111011
          144 217 callsubr
          206 callsubr
          -19 -37 -82 -92 144 callsubr
          -44 166 -2 callsubr
          hhcurveto
          hintmask 01110111
          -153 293 callsubr
          255 callsubr
          153 callgsubr
          172 callgsubr
          hvcurveto
          618 -757 -95 callgsubr
          hintmask 10110111
          -102 callgsubr
          hintmask 01110111
          -93 callsubr
        </CharString>
        <CharString name="b">
          -172 -23 446 callgsubr
          hstem
          90 callsubr
          227 522.989990234375 246 vstem
          13 callgsubr
          227 -615 rmoveto
          45 40 85.02000427246094 162 callsubr
          -42 callsubr
          hhcurveto
          249 callsubr
          750 vlineto
          endchar
        </CharString>
        <CharString name="backslash">
          480 callsubr
          276 callsubr
          742.0099945068359 vstem
          250.97999572753906 1599 rmoveto
          -192 hlineto
          550.0099945068359 -1962 rlineto
          192 hlineto
          -550.0099945068359 1962 rlineto
          endchar
        </CharString>
        <CharString name="bar">
          262 callgsubr
          -1965.990005493164 98 callsubr
          1965.990005493164 -182.99000549316406 vlineto
          endchar
        </CharString>
        <CharString name="braceleft">
          348 callsubr
          295.99000549316406 425 callgsubr
          -88.00001525878906 189 hintmask 11101000
          430.97999572753906 454.97999572753906 rmoveto
          239 callgsubr
          -134.99000549316406 -126 -192 vvcurveto
          hintmask 11110000
          -157 -11 callgsubr
          -99 243 99 431 callsubr
          221 callsubr
          21 81 vhcurveto
          -48 callsubr
          vlineto
          -64 callgsubr
          227 callgsubr
          60 callsubr
          -2 -6 hhcurveto
          -120 457 callgsubr
          -68 callsubr
          134 hvcurveto
          123 101.00999450683594 179 146 vvcurveto
          hintmask 11101000
          144 -109 60 -139 123 callgsubr
          vhcurveto
          139 22 109 61 135 vvcurveto
          hintmask 11110000
          146 -101.00999450683594 180 123 vvcurveto
          133 68.02000427246094 27 120 5 161 -1 -1 330 callgsubr
          vhcurveto
          100 vlineto
          364 callgsubr
          -81 -86.02000427246094 105 callsubr
          -99 hhcurveto
          -239 -76.99000549316406 -93 -163 hvcurveto
          -192 435 callgsubr
          -128 60 callsubr
          vvcurveto
          hintmask 11101000
          -95 -15 -43 -239 1 vhcurveto
          -161 vlineto
          239 1 15 -65 120 callsubr
          vvcurveto
          endchar
        </CharString>
        <CharString name="braceright">
          348 callsubr
          414.97999572753906 189 -87.989990234375 425 callgsubr
          515 callgsubr
          738.9799957275391 -24 rmoveto
          192 -134.97999572753906 126 274 callsubr
          vvcurveto
          hintmask 11110000
          -6 callsubr
          105 callsubr
          65 239 -1 vhcurveto
          161 vlineto
          -239 -1 8 callsubr
          43 95 90 callsubr
          9 callgsubr
          128 192 vvcurveto
          hintmask 11101000
          163 -76.97999572753906 93 -239 -99 -86 8 callsubr
          -21.020004272460938 -81 vhcurveto
          -100 vlineto
          1 5 161 1 5 hhcurveto
          120.02000427246094 220 callsubr
          -27 -133 hvcurveto
          -123 -101 -180 -146 vvcurveto
          hintmask 11110000
          -135 109 -61 139.02000427246094 -22 vhcurveto
          -139.02000427246094 91 callgsubr
          -109 -60 -144 vvcurveto
          hintmask 11101000
          -146 101 -179 -123 vvcurveto
          -134 430 callgsubr
          -56 callsubr
          -120.02000427246094 -6 60 callsubr
          2 -56 callgsubr
          -5 vhcurveto
          127 callgsubr
          vlineto
          -21 81 86 193 callgsubr
          99 hhcurveto
          243 -11 callgsubr
          99 157 hvcurveto
          endchar
        </CharString>
        <CharString name="bracketleft">
          416 callsubr
          388 callsubr
          459 callgsubr
          vstem
          191 1428.990005493164 rmoveto
          -1491.990005493164 vlineto
          -185 75 callsubr
          458 callgsubr
          148 109 94 19 23 86 vhcurveto
          95.00999450683594 -297 1655.990005493164 297 521 callsubr
          vlineto
          19 -61 callsubr
          -93.97999572753906 22 -111 hhcurveto
          -149 -60 callsubr
          -33 -185 hvcurveto
          endchar
        </CharString>
        <CharString name="bracketright">
          416 callsubr
          479.97999572753906 459 callgsubr
          vstem
          681.9799957275391 1428.990005493164 rmoveto
          185 -60 callsubr
          33 -149 -111 -93.99000549316406 -22 -19 -61 callsubr
          vhcurveto
          -93.99000549316406 297 -1655.990005493164 -297 -95.00999450683594 vlineto
          -23 86 94 -19 109 hhcurveto
          148 75 callsubr
          465 callsubr
          185 hvcurveto
          1491.990005493164 vlineto
          endchar
        </CharString>
</ttFont>
